<?xml version="1.0" encoding="utf-8"?>
<!-- Generator: Adobe Illustrator 24.3.0, SVG Export Plug-In . SVG Version: 6.00 Build 0)  -->
<svg version="1.1" id="Layer_1" xmlns="http://www.w3.org/2000/svg" xmlns:xlink="http://www.w3.org/1999/xlink" x="0px" y="0px"
	 viewBox="0 0 56 56" style="enable-background:new 0 0 56 56;" xml:space="preserve">
<style type="text/css">
	.st0{fill:#FFFFFF;}
</style>
<path class="st0" d="M32.4,5.3c5.5-3.7,12.5-0.4,13.3,5.9c0.6,0,1.2,0,1.8,0c4.4,0,7.9,3.2,8.4,7.6c0.4,4.1-2.4,8-6.6,9
	c-0.6,0.1-1.3,0.2-1.9,0.2c-1.5,0-3,0-4.5,0v7.5c0.8,0,1.6,0,2.5,0c1.9,0,3.1,1.1,3.1,3.1c0,2.1,0,4.1,0,6.2h3.7v1.9
	c-0.7,0-1.3,0-2,0c-0.8,0-1.6,0-2.4,0c-0.8,0-1.1-0.3-1.1-1.1c0-2.3,0-4.6,0-6.9c0-1-0.3-1.3-1.3-1.3c-0.8,0-1.6,0-2.4,0
	c0,0.6,0,1.1,0,1.6c0,0.8-0.3,1.5-1,2c-1.2,1-2.7,1.4-4.2,1.6c-1,0.2-2.1,0.3-3.2,0.4v8.3c0.1,0,0.2,0,0.4,0c2.2,0,4.5,0,6.7,0
	c0.3,0,0.5-0.1,0.6-0.4c0.7-1.7,2.4-2.7,4.1-2.3c1.8,0.4,3.1,1.8,3.1,3.7s-1.2,3.3-3,3.7c-1.7,0.4-3.5-0.6-4.1-2.3
	c-0.2-0.4-0.4-0.5-0.7-0.5c-2.5,0-5.1,0-7.6,0c-1,0-1.3-0.3-1.3-1.2c0-2.8,0-5.6,0-8.3v-0.6c-1.3-0.1-2.5-0.3-3.7-0.4v0.6
	c0,3.9,0,7.7,0,11.6c0,1-0.3,1.3-1.3,1.3c-1.1,0-2.2,0-3.3,0v-1.9H27c0-0.2,0-0.4,0-0.6c0-3.7,0-7.4,0-11.1c0-0.4-0.1-0.6-0.5-0.7
	c-0.5-0.2-1-0.5-1.5-0.9c-0.6-0.4-0.9-1.1-0.8-1.8c0-1.8,0-3.6,0-5.4c-0.9,0-1.7,0-2.6,0c-0.7,0-1.3,0-2,0c-1.7,0-2.9,1.2-2.9,2.9
	c0,3.9,0,7.8,0,11.7c0,3.1-2,5-5,5c-1.3,0-2.6,0-4,0c-0.3,0-0.5,0.1-0.6,0.4c-0.7,1.7-2.4,2.7-4.1,2.3c-1.8-0.3-3-1.8-3-3.6
	s1.2-3.3,3-3.7c1.7-0.3,3.5,0.6,4.1,2.3c0.1,0.4,0.3,0.5,0.7,0.5c1.4,0,2.8,0,4.1,0c1.8,0,2.9-1.2,3-3c0-3.9,0-7.8,0-11.7
	c0-3,2-5,5-5c1.4,0,2.9,0,4.3,0V28c-0.2,0-0.4,0-0.7,0c-5,0-10.1,0-15.1,0c-4.9,0-8.6-3.9-8.5-8.8c0.1-4,3.3-7.4,7.2-7.9
	c0.4-0.1,0.6-0.2,0.7-0.6C9.5,4.1,15.3-0.2,22,0c4,0.2,7.3,1.8,10,4.8C32.2,5,32.3,5.1,32.4,5.3L32.4,5.3z M32.7,18.5
	c0-0.4,0-1,0-1.5c0-0.8-0.3-1.1-1.1-1.1c-1.4,0-2.7,0-4.1,0c-0.4,0-0.5,0.1-0.7,0.5c-0.7,1.7-2.4,2.6-4.1,2.3c-1.8-0.4-3-1.9-3-3.7
	c0-1.8,1.3-3.3,3.1-3.7c1.7-0.3,3.4,0.6,4.1,2.3c0.1,0.3,0.3,0.4,0.6,0.4c1.4,0,2.7,0,4.1,0c1.9,0,3,1.2,3,3.1c0,0.5,0,1,0,1.6
	c0.5,0,1,0.1,1.4,0.1c1.8,0.2,3.5,0.5,5.2,1.3c1,0.5,1.7,1.1,1.8,2.3h1.8c0-1.2,0-2.4,0-3.5c0-0.7,0.3-1,0.9-1.1c0.6,0,1.2,0,1.9,0
	v1.8c-0.3,0-0.6,0-0.9,0.1c0,1.2,0,2.3,0,3.4c0,0.9-0.3,1.2-1.2,1.2c-0.8,0-1.7,0-2.5,0v1.9c1.7,0,3.5,0.1,5.2,0
	c3.3-0.2,5.9-3,6-6.2c0.1-3.9-3-7.6-8.5-6.7c-0.2,1.5-0.8,2.9-1.8,4.2c-0.5-0.4-1-0.8-1.4-1.2C44.9,13,43.9,9,41.4,7
	c-2.6-2.1-6.2-1.6-7.7-0.1c0.5,1.4,1.1,2.7,1.6,4.1c-0.7,0.2-1.3,0.3-1.9,0.4C31.6,4.5,25.4,1.2,19.9,2C14,2.7,10.4,7.5,9.7,11.3
	c2,0.4,3.7,1.3,5.1,2.9c1.3,1.6,2,3.4,2,5.4H15c-0.1-0.4-0.1-0.7-0.1-1.1c-0.5-3.2-3.5-5.6-6.8-5.4c-3.3,0.2-6,2.9-6.1,6.2
	c-0.2,3.8,2.7,6.9,6.6,6.9c5.1,0,10.2,0,15.3,0c0.2,0,0.3,0,0.5,0c0-1.2,0-2.4,0-3.5c0-0.8,0.2-1.4,0.9-1.8c0.8-0.5,1.6-1,2.4-1.2
	C29.2,19.1,30.9,18.8,32.7,18.5L32.7,18.5z M26.1,30.3v1.8c0,1.9,0.1,2,1.9,2.6c0.1,0,0.2,0.1,0.2,0.1c3,0.8,6,0.9,9,0.4
	c1.1-0.2,2.2-0.6,3.2-1c0.3-0.1,0.6-0.4,0.6-0.6c0.1-1,0-2,0-3.1c-2.4,1-4.9,1.4-7.4,1.4C31.1,31.8,28.6,31.4,26.1,30.3L26.1,30.3z
	 M26.1,24.8c0,1,0,2.1,0,3.1c0,0.2,0.2,0.5,0.4,0.6c0.5,0.3,1.1,0.6,1.7,0.7c3,0.8,6,0.9,9,0.4c1.1-0.2,2.2-0.6,3.2-1
	c0.3-0.1,0.6-0.4,0.6-0.7c0.1-1,0-2,0-3.1C36.1,26.6,31.1,26.6,26.1,24.8L26.1,24.8z M26.1,36c0,0.6,0,1.1,0,1.7c0,2,0.1,2.1,2,2.7
	c0.1,0,0.1,0,0.2,0c3,0.8,6,0.9,9,0.4c1.1-0.2,2.1-0.6,3.2-1c0.2-0.1,0.6-0.4,0.6-0.6c0.1-1,0-2,0-3.1C36.1,37.8,31.1,37.8,26.1,36
	L26.1,36z M33.6,24.3c1.3-0.2,2.6-0.2,3.9-0.5c0.9-0.2,1.8-0.5,2.7-0.8c0.3-0.1,0.5-0.4,0.8-0.6c-0.3-0.2-0.5-0.5-0.8-0.7
	c-0.4-0.2-0.8-0.4-1.3-0.5c-3.2-0.9-6.4-0.9-9.7-0.3c-0.8,0.2-1.5,0.4-2.3,0.7c-0.3,0.1-0.6,0.5-0.9,0.7c0.3,0.2,0.5,0.5,0.9,0.7
	c0.4,0.2,0.8,0.3,1.2,0.5C30,24.1,31.8,24.3,33.6,24.3L33.6,24.3z M23.3,13.1c-1,0-1.9,0.8-1.9,1.9c0,1,0.9,1.9,1.9,1.9
	c1,0,1.8-0.9,1.8-1.9C25.2,13.9,24.4,13,23.3,13.1L23.3,13.1z M5.6,52.2c0-1-0.8-1.8-1.9-1.8c-1,0-1.9,0.9-1.9,1.9
	c0,1,0.9,1.8,1.9,1.8C4.8,54.1,5.6,53.3,5.6,52.2L5.6,52.2z M45.7,50.4c-1,0-1.9,0.8-1.9,1.9c0,1,0.8,1.9,1.8,1.9
	c1,0,1.9-0.8,1.9-1.9C47.6,51.2,46.7,50.4,45.7,50.4L45.7,50.4z"/>
<path class="st0" d="M54.2,44.8h1.8v1.8h-1.8V44.8z"/>
<path class="st0" d="M22.4,56h-1.8v-1.8h1.8V56z"/>
<path class="st0" d="M15.8,22.4v1.9c-0.4,0-0.7,0-1.1,0c-2.2,0-4.3,0-6.5,0c-2.3,0-4.2-1.8-4.6-4.1c-0.3-2.2,1.2-4.4,3.4-5
	C7.5,15,7.9,15,8.4,14.9v1.7c-0.7,0.4-1.4,0.7-2,1.1c-0.9,0.8-1,1.9-0.6,2.9c0.5,1.1,1.3,1.8,2.6,1.8c2.3,0,4.5,0,6.8,0
	C15.4,22.4,15.6,22.4,15.8,22.4L15.8,22.4z"/>
<path class="st0" d="M49.5,17.8h1.8v1.8h-1.8V17.8z"/>
</svg>
