<svg width="54" height="54" viewBox="0 0 54 54" fill="none" xmlns="http://www.w3.org/2000/svg">
<g clip-path="url(#clip0_4541_1079)">
<path d="M50.481 17.1547C49.5287 16.2032 48.4327 15.4488 47.2435 14.9063C49.3971 13.4353 50.8137 10.9615 50.8137 8.16236C50.8137 3.66161 47.1521 0 42.6514 0C38.1506 0 34.489 3.66161 34.489 8.16236C34.489 10.8951 35.8402 13.3165 37.9081 14.7988C35.1173 15.8758 32.7202 17.8857 31.1916 20.5548C30.7287 21.3615 29.8642 21.8627 28.9353 21.8627H25.0642C24.1351 21.8627 23.2709 21.3618 22.809 20.5555C21.2797 17.886 18.8824 15.8761 16.0917 14.7989C18.1596 13.3167 19.5108 10.8952 19.5108 8.16249C19.5107 3.66161 15.8491 0 11.3483 0C6.84758 0 3.18597 3.66161 3.18597 8.16236C3.18597 10.9631 4.60425 13.4383 6.75999 14.909C2.93778 16.6563 0.275391 20.5157 0.275391 24.9857V34.0355C0.275391 35.886 1.50261 37.4553 3.1861 37.972V50.7901C3.1861 52.5597 4.62583 53.9995 6.39539 53.9995H16.3014C18.071 53.9995 19.5107 52.5597 19.5107 50.7901V27.9128C21.3807 29.1769 23.6048 29.872 25.9002 29.872L28.0992 29.8722C29.7145 29.8722 31.2801 29.5383 32.7521 28.8798C33.3633 28.6064 33.9435 28.2843 34.4896 27.9154V50.7908C34.4896 52.5604 35.9292 54 37.6988 54H47.6048C49.3744 54 50.814 52.5604 50.814 50.7908V37.9717C52.4976 37.455 53.7249 35.8855 53.7249 34.0349V24.9852C53.7251 22.0276 52.573 19.2467 50.481 17.1547ZM42.6514 2.41205C45.8222 2.41205 48.4017 4.99167 48.4017 8.16236C48.4017 11.3331 45.8222 13.9127 42.6514 13.9127C39.4805 13.9127 36.901 11.3331 36.901 8.16236C36.901 4.99167 39.4805 2.41205 42.6514 2.41205ZM5.59801 8.16236C5.59801 4.99167 8.17763 2.41205 11.3483 2.41205C14.519 2.41205 17.0986 4.99167 17.0986 8.16236C17.0986 11.3331 14.519 13.9127 11.3483 13.9127C8.17763 13.9127 5.59801 11.3331 5.59801 8.16236ZM25.9002 27.46C23.3551 27.46 20.921 26.376 19.2183 24.4852C18.9317 24.1669 18.4983 24.0058 18.0779 24.088C17.4989 24.2011 17.0988 24.7033 17.0988 25.2728V50.7901C17.0988 51.2305 16.7418 51.5874 16.3014 51.5874H13.2465C12.8644 51.5874 12.5545 51.2777 12.5545 50.8954V38.9418C12.5545 38.2995 12.0698 37.7386 11.4288 37.6971C10.7264 37.6517 10.1424 38.208 10.1424 38.9005V50.8953C10.1424 51.2774 9.83268 51.5873 9.45043 51.5873H6.39539C5.95512 51.5873 5.59814 51.2303 5.59814 50.7901V36.9461C5.59814 36.2801 5.05848 35.7399 4.39237 35.74C3.45231 35.7402 2.68744 34.9754 2.68744 34.0354V25.0717C2.68744 20.2604 6.62415 16.286 11.4352 16.325C15.2704 16.356 18.8278 18.4396 20.7289 21.7767C21.6135 23.3296 23.277 24.2744 25.0642 24.2744H26.7513C27.5801 24.2744 28.3057 24.8884 28.3833 25.7137C28.4725 26.6606 27.7268 27.4599 26.7979 27.4599H25.9002V27.46ZM51.313 34.0349C51.313 34.975 50.548 35.74 49.6077 35.7398C48.9417 35.7397 48.4021 36.2798 48.4021 36.9458V50.7908C48.4021 51.2311 48.0452 51.5879 47.6049 51.5879H44.5494C44.1673 51.5879 43.8574 51.2782 43.8574 50.8959V38.9418C43.8574 38.2995 43.3726 37.7386 42.7315 37.6971C42.029 37.6517 41.4453 38.208 41.4453 38.9006V50.8961C41.4453 51.2782 41.1356 51.5881 40.7533 51.5881H37.6988C37.2585 51.5881 36.9017 51.2312 36.9017 50.791V25.3159C36.9017 24.8667 36.6748 24.4352 36.2814 24.2183C35.7801 23.9421 35.1682 24.0541 34.7972 24.4684C33.9503 25.4141 32.9311 26.1576 31.7673 26.6782C31.3882 26.8477 31.0007 26.9871 30.6071 27.1017C30.7336 26.7126 30.8026 26.298 30.8026 25.8674C30.8026 25.2177 30.6461 24.6041 30.3704 24.061C31.5832 23.6966 32.6377 22.8816 33.2842 21.7544C35.2021 18.4054 38.7913 16.325 42.6511 16.325C44.9643 16.325 47.1393 17.2257 48.7757 18.8608C50.4119 20.4969 51.3129 22.672 51.3129 24.9855V34.0349H51.313Z" fill="#00283B"/>
</g>
<defs>
<clipPath id="clip0_4541_1079">
<rect width="54" height="54" fill="white"/>
</clipPath>
</defs>
</svg>
