<svg width="54" height="54" viewBox="0 0 54 54" fill="none" xmlns="http://www.w3.org/2000/svg">
<path d="M40.5 15.1875H33.75V6.75C34.6815 6.75 35.4375 5.994 35.4375 5.0625C35.4375 2.26631 33.1712 0 30.375 0H23.625C20.8288 0 18.5625 2.26631 18.5625 5.0625C18.5625 5.994 19.3185 6.75 20.25 6.75V15.1875H13.5C10.7038 15.1875 8.4375 17.4538 8.4375 20.25V43.875C8.4375 46.6712 10.7038 48.9375 13.5 48.9375H13.9674C13.5456 49.6631 13.3599 50.5457 13.6181 51.4991C13.9573 52.7563 15.012 53.7384 16.2962 53.9511C18.4157 54.3038 20.25 52.6787 20.25 50.625C20.25 50.0074 20.0711 49.4353 19.7826 48.9375H34.2191C33.7972 49.6631 33.6116 50.5457 33.8698 51.4991C34.209 52.7563 35.2637 53.7384 36.5479 53.9511C38.6657 54.3038 40.5 52.6787 40.5 50.625C40.5 50.0074 40.3211 49.4353 40.0326 48.9375H40.5C43.2962 48.9375 45.5625 46.6712 45.5625 43.875V20.25C45.5625 17.4538 43.2962 15.1875 40.5 15.1875ZM23.625 1.6875H30.375C32.2397 1.6875 33.75 3.19781 33.75 5.0625H32.0625C32.0625 4.131 31.3065 3.375 30.375 3.375H23.625C22.6935 3.375 21.9375 4.131 21.9375 5.0625H20.25C20.25 3.19781 21.7603 1.6875 23.625 1.6875ZM32.0625 6.75V15.1875H21.9375V6.75C22.869 6.75 23.625 5.994 23.625 5.0625H30.375C30.375 5.994 31.131 6.75 32.0625 6.75ZM16.875 52.3125C15.9452 52.3125 15.1875 51.5548 15.1875 50.625C15.1875 49.6952 15.9452 48.9375 16.875 48.9375C17.8048 48.9375 18.5625 49.6952 18.5625 50.625C18.5625 51.5548 17.8048 52.3125 16.875 52.3125ZM37.125 52.3125C36.1952 52.3125 35.4375 51.5548 35.4375 50.625C35.4375 49.6952 36.1952 48.9375 37.125 48.9375C38.0548 48.9375 38.8125 49.6952 38.8125 50.625C38.8125 51.5548 38.0548 52.3125 37.125 52.3125ZM43.875 43.875C43.875 45.7397 42.3647 47.25 40.5 47.25H13.5C11.6353 47.25 10.125 45.7397 10.125 43.875V27H23.625V28.6875C23.625 29.619 24.381 30.375 25.3125 30.375H28.6875C29.619 30.375 30.375 29.619 30.375 28.6875V27H43.875V43.875ZM25.3125 28.6875V23.625H28.6875V28.6875H25.3125ZM43.875 25.3125H30.375V23.625C30.375 22.6935 29.619 21.9375 28.6875 21.9375H25.3125C24.381 21.9375 23.625 22.6935 23.625 23.625V25.3125H10.125V20.25C10.125 18.3853 11.6353 16.875 13.5 16.875H40.5C42.3647 16.875 43.875 18.3853 43.875 20.25V25.3125Z" fill="#5AC8FF"/>
</svg>
