<?xml version="1.0" encoding="utf-8"?>
<!-- Generator: Adobe Illustrator 24.3.0, SVG Export Plug-In . SVG Version: 6.00 Build 0)  -->
<svg version="1.1" id="Layer_1" xmlns="http://www.w3.org/2000/svg" xmlns:xlink="http://www.w3.org/1999/xlink" x="0px" y="0px"
	 viewBox="0 0 56 56" style="enable-background:new 0 0 56 56;" xml:space="preserve">
<style type="text/css">
	.st0{fill:#FFFFFF;}
</style>
<g>
	<path class="st0" d="M20.3,40.9h15.4c0.4,0,0.8-0.3,0.8-0.8s-0.3-0.8-0.8-0.8H20.3c-0.4,0-0.8,0.3-0.8,0.8S19.9,40.9,20.3,40.9z"/>
	<path class="st0" d="M52.7,46.8h-0.9V18.2c0-2.3-1.9-4.2-4.2-4.2H34.5c1.7-3.4,0.5-7.6-2.8-9.5c-3.5-2-7.9-0.9-10,2.6
		c-1.3,2.1-1.3,4.8-0.2,7H8.4c-2.3,0-4.1,1.9-4.2,4.2v28.6H3.3c-1.2,0-2.2,1-2.3,2.3v1.1c0,1.2,1,2.2,2.3,2.3h49.3
		c1.2,0,2.3-1,2.3-2.3v-1.1C54.9,47.8,53.9,46.8,52.7,46.8z M22.6,19.1v-2h10.8v2H22.6z M19.7,33.3l-0.1,2.1h-2.5
		c-0.4,0-0.8,0.3-0.8,0.8v7.3H9.3V19h11.8v0.9c0,0.4,0.3,0.7,0.7,0.8h0.7c0,0.1,0,0.2,0,0.3c0,0.2,0,0.3,0,0.5
		C22.6,25.5,21.6,29.6,19.7,33.3z M24.1,20.6h7.8c0,0.1,0,0.2,0,0.2c0,0.2,0,0.4,0,0.5c0,4.3,1.1,8.6,3.1,12.4v1.5H21.1v-1.5
		c2-3.8,3.1-8.1,3.1-12.4C24.1,21.2,24.1,20.9,24.1,20.6z M38.2,36.9v6.5H17.8v-6.5H38.2z M35,19.9V19h11.8v24.4h-7.1v-7.3
		c0-0.4-0.3-0.8-0.8-0.8h-2.5v-2.2h-0.1c-1.9-3.6-2.9-7.7-2.9-11.8c0-0.2,0-0.5,0-0.8h0.7C34.6,20.6,35,20.3,35,19.9z M31.2,15.6
		h-6.4c-1.6-1.1-2.6-2.9-2.6-4.8v-0.3h0C22.4,7.5,24.9,5,28,5c3.2,0,5.8,2.6,5.8,5.8c0,1.3-0.4,2.6-1.2,3.6
		C32.2,14.9,31.7,15.3,31.2,15.6z M21.9,15.6c-0.4,0-0.8,0.3-0.8,0.8v1.1H8.5c-0.4,0-0.8,0.3-0.8,0.8v25.9c0,0.4,0.3,0.8,0.8,0.8h39
		c0.4,0,0.8-0.3,0.8-0.8V18.2c0-0.4-0.3-0.8-0.8-0.8H34.9v-1.1c0-0.4-0.3-0.8-0.8-0.8h-0.7c0,0,0,0,0,0h14.1c1.5,0,2.7,1.2,2.7,2.6
		v28.6H34.4l-0.2,0c0,0,0,0,0,0l-0.1,0l-0.1,0.1c0,0-0.1,0.1-0.1,0.1l-1.8,1.9h-8.2L22.1,47c0,0-0.1-0.1-0.2-0.1c0,0-0.1,0-0.2,0
		H5.7V18.2c0-1.5,1.2-2.6,2.7-2.6h14.1c0,0,0,0,0,0H21.9z M23.4,50.3c0,0,0.1,0,0.2,0h9c0,0,0.1,0,0.1,0h0.1l0.1-0.1
		c0,0,0.1-0.1,0.1-0.1l1.8-1.8h17.9c0.4,0,0.7,0.3,0.7,0.7v1.3c-0.1,0.3-0.4,0.6-0.7,0.6H3.4c-0.4,0-0.7-0.3-0.7-0.7v-1.1
		c0-0.4,0.3-0.7,0.7-0.7h17.9l1.8,1.8l0,0.2L23.4,50.3z"/>
</g>
</svg>
