<?xml version="1.0" encoding="utf-8"?>
<!-- Generator: Adobe Illustrator 24.3.0, SVG Export Plug-In . SVG Version: 6.00 Build 0)  -->
<svg version="1.1" id="Glyph" xmlns="http://www.w3.org/2000/svg" xmlns:xlink="http://www.w3.org/1999/xlink" x="0px" y="0px"
	 viewBox="0 0 200 200" style="enable-background:new 0 0 200 200;" xml:space="preserve">
<style type="text/css">
	.st0{fill:#FFFFFF;}
</style>
<g>
	<path class="st0" d="M191.7,11.2H8.4c-3.7,0-6.7,3-6.7,6.7v124.4c0,3.7,3,6.7,6.7,6.7h37.9l0.8,3.6c0.8,3.9,4,6.8,7.7,7.5
		c-1.6,2.8-2.4,6-2.4,9.4c0,10.7,8.7,19.4,19.4,19.4s19.4-8.7,19.4-19.4c0-3.4-0.9-6.5-2.4-9.3h16.1c-1.5,2.8-2.4,5.9-2.4,9.3
		c0,10.7,8.7,19.4,19.4,19.4s19.4-8.7,19.4-19.4c0-3.4-0.9-6.6-2.4-9.3c4.1-0.4,7.6-3.5,8.4-7.5l21-97.6h24.3v87.2c0,0.5-0.4,1-1,1
		h-31.5c-1.6,0-2.9,1.3-2.9,2.9c0,1.6,1.3,2.9,2.9,2.9h31.5c3.7,0,6.7-3,6.7-6.7V18C198.4,14.2,195.4,11.2,191.7,11.2L191.7,11.2z
		 M71.7,183.2c-7.5,0-13.6-6.1-13.6-13.6s6.1-13.6,13.6-13.6s13.6,6.1,13.6,13.6C85.4,177.1,79.3,183.2,71.7,183.2L71.7,183.2z
		 M122,183.2c-7.5,0-13.6-6.1-13.6-13.6s6.1-13.6,13.6-13.6c7.5,0,13.6,6.1,13.6,13.6S129.5,183.2,122,183.2L122,183.2z M184.4,49.3
		c1.9-1.8,3.2-4.3,3.2-7.1c0-5.3-4.3-9.6-9.6-9.6h-9.1c-8.9,0-16.7,6.3-18.6,15l-0.4,1.7h-27.3c-1.6,0-2.9,1.3-2.9,2.9
		c0,1.6,1.3,2.9,2.9,2.9h26l-2.9,13.6H40.9c-2.9,0-5.6,1.3-7.5,3.6c-1.8,2.3-2.5,5.2-1.9,8.1l7.1,33.1c0.3,1.6,1.9,2.5,3.4,2.2
		c1.6-0.3,2.6-1.9,2.2-3.4l-7.1-33.1c-0.2-1.1,0-2.3,0.8-3.2c0.7-0.9,1.8-1.4,3-1.4h107.2c1.4,0,2.5-1,2.8-2.3l5-23.4
		c1.3-6.1,6.7-10.4,12.9-10.4h9.1c2.1,0,3.8,1.7,3.8,3.8s-1.7,3.8-3.8,3.8h-9.1c-2.6,0-4.9,1.8-5.4,4.4l-21.7,101.1
		c-0.4,1.8-2,3-3.8,3h-3.8c-3.3-2.7-7.6-4.4-12.2-4.4s-8.9,1.6-12.2,4.4H84c-3.3-2.7-7.6-4.4-12.2-4.4s-8.9,1.6-12.2,4.4h-3
		c-1.8,0-3.4-1.3-3.8-3L46.9,124c-0.3-1.6-1.9-2.5-3.4-2.2c-1.6,0.3-2.6,1.9-2.2,3.4l3.9,18.2H8.4c-0.5,0-1-0.4-1-1V55.1h101.9
		c1.6,0,2.9-1.3,2.9-2.9c0-1.6-1.3-2.9-2.9-2.9H7.4V18c0-0.5,0.4-1,1-1h183.3c0.5,0,1,0.4,1,1v31.4L184.4,49.3L184.4,49.3z"/>
	<circle class="st0" cx="23" cy="33" r="5.6"/>
	<circle class="st0" cx="40.1" cy="33" r="5.6"/>
	<circle class="st0" cx="57.2" cy="33" r="5.6"/>
	<path class="st0" d="M105.3,130.4h-17c-0.8,0-1.6,0.3-2.1,0.9s-0.8,1.4-0.8,2.2l0.9,10.6c0.1,1.5,1.4,2.7,2.9,2.7h15.3
		c1.5,0,2.8-1.2,2.9-2.7l0.9-10.6c0.1-0.8-0.2-1.6-0.8-2.2C106.9,130.7,106.1,130.4,105.3,130.4z M101.8,141h-9.9l-0.4-4.9h10.7
		L101.8,141z"/>
	<path class="st0" d="M48.7,96.3c0.3,1.3,1.5,2.3,2.8,2.3h20.2c1.6,0,3-1.5,2.9-3.1l-0.9-10.6c-0.1-1.5-1.4-2.7-2.9-2.7H49.3
		c-1.8,0-3.2,1.8-2.8,3.5L48.7,96.3z M68.2,88l0.4,4.9H53.9l-1-4.9H68.2z"/>
	<path class="st0" d="M59.6,130.4c-0.9,0-1.7,0.4-2.2,1.1c-0.5,0.7-0.8,1.6-0.6,2.4l2.3,10.6c0.3,1.3,1.5,2.3,2.8,2.3h13.8
		c0.8,0,1.6-0.3,2.1-0.9c0.5-0.6,0.8-1.4,0.8-2.2l-0.9-10.6c-0.1-1.5-1.4-2.7-2.9-2.7L59.6,130.4z M64.2,141l-1-4.9h9l0.4,4.9H64.2z
		"/>
	<path class="st0" d="M54.4,106.3c-0.9,0-1.7,0.4-2.2,1.1s-0.8,1.6-0.6,2.4l2.3,10.6c0.3,1.3,1.5,2.3,2.8,2.3h17
		c0.8,0,1.6-0.3,2.1-0.9s0.8-1.4,0.8-2.2L75.7,109c-0.1-1.5-1.4-2.7-2.9-2.7L54.4,106.3z M59.1,116.9l-1-4.9h12.2l0.4,4.9H59.1z"/>
	<path class="st0" d="M82.4,96c0.1,1.5,1.4,2.7,2.9,2.7h23.2c1.5,0,2.8-1.2,2.9-2.7l0.9-10.6c0.2-1.6-1.2-3.2-2.9-3.1h-25
		c-1.6,0-3,1.5-2.9,3.1L82.4,96z M106.2,88l-0.4,4.9H87.9L87.5,88H106.2z"/>
	<path class="st0" d="M120,122.7h17.8c1.4,0,2.5-1,2.8-2.3l2.3-10.6c0.2-0.9,0-1.7-0.6-2.4c-0.5-0.7-1.4-1.1-2.2-1.1h-19.2
		c-1.5,0-2.8,1.2-2.9,2.7l-0.9,10.6c-0.1,0.8,0.2,1.6,0.8,2.2C118.4,122.4,119.2,122.7,120,122.7L120,122.7z M123.5,112.1h12.9
		l-1,4.9h-12.3L123.5,112.1z"/>
	<path class="st0" d="M122,98.6h21c1.4,0,2.5-1,2.8-2.3l2.3-10.6c0.4-1.7-1-3.5-2.8-3.5h-22.4c-1.5,0-2.8,1.2-2.9,2.7l-0.9,10.6
		C118.9,97.1,120.3,98.6,122,98.6L122,98.6z M125.5,88h16.1l-1,4.9h-15.5L125.5,88z"/>
	<path class="st0" d="M107.3,106.3H86.4c-0.8,0-1.6,0.3-2.1,0.9s-0.8,1.4-0.8,2.2l0.9,10.6c0.1,1.5,1.4,2.7,2.9,2.7h19.2
		c1.5,0,2.8-1.2,2.9-2.7l0.9-10.6c0.1-0.8-0.2-1.6-0.8-2.2S108.1,106.3,107.3,106.3z M103.8,116.9H89.9l-0.4-4.9h14.7L103.8,116.9z"
		/>
	<path class="st0" d="M118,146.8h14.6c1.4,0,2.5-1,2.8-2.3l2.3-10.6c0.2-0.9,0-1.7-0.6-2.4c-0.5-0.7-1.4-1.1-2.2-1.1h-16
		c-1.5,0-2.8,1.2-2.9,2.7l-0.9,10.6c-0.1,0.8,0.2,1.6,0.8,2.2C116.4,146.5,117.2,146.8,118,146.8L118,146.8z M121.5,136.2h9.7
		l-1,4.9h-9.1L121.5,136.2z"/>
</g>
</svg>
