<?xml version="1.0" encoding="utf-8"?>
<!-- Generator: Adobe Illustrator 24.3.0, SVG Export Plug-In . SVG Version: 6.00 Build 0)  -->
<svg version="1.1" id="Glyph" xmlns="http://www.w3.org/2000/svg" xmlns:xlink="http://www.w3.org/1999/xlink" x="0px" y="0px"
	 viewBox="0 0 200 200" style="enable-background:new 0 0 200 200;" xml:space="preserve">
<style type="text/css">
	.st0{fill:#FFFFFF;}
</style>
<g id="Page-1">
	<g id="_x30_01---Degree">
		<path id="Shape" class="st0" d="M194.5,34.4l-92.3-33c-1.5-0.5-3-0.5-4.5,0l-92.3,33c-2.5,1-4.3,3.5-4.3,6.2s1.8,5.3,4.4,6.2
			l45,16.1v20.6c0,12.8,44.4,13.2,49.4,13.2c5.1,0,49.4-0.4,49.4-13.2V62.9l9.9-3.5V67c0,3.6,3,6.6,6.6,6.6h6.6c3.6,0,6.6-3,6.6-6.6
			v-9.9c0-1.5-0.4-3-1.1-4.4l16.5-5.9c2.6-0.9,4.4-3.4,4.4-6.2C198.9,37.9,197.1,35.4,194.5,34.4L194.5,34.4z M142.9,76.2
			c-12.6-5.7-39-5.9-42.9-5.9s-30.3,0.2-42.9,5.9V47.5c2-2.5,17.5-6.9,42.9-6.9s40.9,4.3,42.9,6.9V76.2z M100,90.1
			c-24.4,0-39.7-4-42.6-6.6c2.9-2.6,18.2-6.6,42.6-6.6s39.7,4,42.6,6.6C139.7,86.1,124.4,90.1,100,90.1z M160.9,51.9l-11.5,4v-8.7
			C149.4,34.4,105,34,100,34c-5.1,0-49.4,0.4-49.4,13.2v8.7L7.7,40.6l92.4-33l65.8,23.6v16.6C163.8,48.6,162.1,50,160.9,51.9z
			 M172.5,67h-6.6v-9.9c0-1.8,1.5-3.3,3.3-3.3c1.8,0,3.3,1.5,3.3,3.3V67z M172.5,47.7V33.6l19.8,7.1L172.5,47.7z"/>
		<path id="Shape_1_" class="st0" d="M189,103.3c-0.2,0-0.4,0-0.6,0.1c-29.3,4.5-58.8,6.7-88.4,6.5c-29.6,0.2-59.2-2-88.4-6.5
			c-0.2,0-0.4-0.1-0.6-0.1c-2.3,0-9.9,2.6-9.9,36.3s7.6,36.3,9.9,36.3c0.2,0,0.4,0,0.6-0.1c22.5-3.6,45.2-5.6,67.9-6.2L73.1,185
			c-1,2.5-0.4,5.3,1.5,7.1c1.9,1.9,4.7,2.4,7.2,1.3l2.5-1.1l1.1,2.5c1,2.4,3.4,4,6.1,4h0.1c2.7,0,5-1.6,6-4.1l5.7-13.7l5.7,13.7
			c1,2.5,3.4,4.1,6.1,4.2h0.1c2.6,0,5-1.5,6-4l1.1-2.5l2.5,1.1c2.5,1.1,5.3,0.6,7.2-1.3c1.9-1.9,2.5-4.7,1.5-7.2l-6.3-15.1
			c20.5,0.7,41,2.7,61.2,5.9c0.2,0,0.4,0,0.6,0c2.3,0,9.9-2.6,9.9-36.3S191.3,103.3,189,103.3L189,103.3z M110.5,116.4
			c1.4,5,2.2,10.2,2.4,15.4c-7.5-3.5-16.2-2.7-22.9,2.1c-0.2-5.9-0.9-11.8-2.3-17.6c4,0.1,8.1,0.1,12.3,0.1
			C103.6,116.5,107.1,116.4,110.5,116.4z M103.3,169.2c-9.1,0-16.5-7.4-16.5-16.5s7.4-16.5,16.5-16.5s16.5,7.4,16.5,16.5
			C119.8,161.8,112.4,169.2,103.3,169.2z M11,111.5c2.5,9.1,3.6,18.6,3.3,28c0.3,9.5-0.8,18.9-3.3,28c-2.5-9.1-3.6-18.6-3.3-28
			C7.4,130.1,8.5,120.6,11,111.5z M17.6,168.1c1.8-5.2,3.2-14,3.2-28.6s-1.4-23.4-3.2-28.6c20.9,2.9,42,4.6,63.2,5.2
			c2,7.6,2.9,15.5,2.7,23.4c0,0.5,0,0.9,0,1.4c-4,6.6-4.4,14.7-1.1,21.6l-0.1,0.3C60.7,163.4,39.1,165.2,17.6,168.1L17.6,168.1z
			 M91.5,192.3l-2.4-5.5c-0.7-1.7-2.7-2.4-4.3-1.7l-5.5,2.5l7.7-18.5c3.2,3.2,7.2,5.4,11.6,6.4L91.5,192.3z M121.9,185
			c-1.7-0.7-3.6,0.1-4.3,1.7l-2.4,5.5l-7.1-16.9c4.4-0.9,8.5-3.1,11.7-6.4l7.7,18.5L121.9,185z M188.4,169
			c-21.2-3.3-42.5-5.2-64-5.9l-0.2-0.6c4.1-8.7,2.4-19.1-4.4-26c0-6.8-0.8-13.6-2.4-20.3c23.8-0.5,47.5-2.6,71-6.2
			c1.5,2.6,4,12.9,4,29.5S189.9,166.4,188.4,169L188.4,169z"/>
	</g>
</g>
</svg>
