<?xml version="1.0" encoding="utf-8"?>
<!-- Generator: Adobe Illustrator 24.3.0, SVG Export Plug-In . SVG Version: 6.00 Build 0)  -->
<svg version="1.1" id="Layer_1" xmlns="http://www.w3.org/2000/svg" xmlns:xlink="http://www.w3.org/1999/xlink" x="0px" y="0px"
	 viewBox="0 0 54 54" style="enable-background:new 0 0 54 54;" xml:space="preserve">
<style type="text/css">
	.st0{fill:#FFFFFF;}
</style>
<path class="st0" d="M25.8,28C26.7,28.9,28.9,30.9,25.8,28C25.2,27.4,25.3,27.6,25.8,28c-2-1.9-4.3-3.3-6.3-4
	c-2.3-0.8-4.1-0.6-5.2,0.5c-1,1.1-1.1,3-0.1,5.2c0.9,2,2.5,4.1,4.5,5.9c2,1.9,4.3,3.3,6.3,4c0.1,0,0.3,0.1,0.4,0.1L4,51.6L12.4,33
	c0.2-0.5,0-1-0.5-1.2c-0.5-0.2-1,0-1.2,0.5L1.8,52c-0.5,1.2,0.9,2.5,2,1.9l25.3-14c0.4-0.2,0.8-0.4,1.1-0.7
	C32.3,37,30.3,32.2,25.8,28z M28.8,37.8c-0.6,0.8-2.3,0.3-3.2,0c-1.8-0.6-3.8-1.9-5.6-3.6c-1.8-1.7-3.3-3.6-4.1-5.3
	c-0.6-1.4-0.7-2.6-0.3-3.1c0.2-0.3,0.7-0.4,1.2-0.4c0.5,0,1.2,0.1,1.9,0.4c1.8,0.6,3.8,1.9,5.6,3.6C28.6,33.1,29.7,36.7,28.8,37.8z"
	/>
<path class="st0" d="M22.2,22.2C21.8,21.9,22.4,22.4,22.2,22.2L22.2,22.2z"/>
<path class="st0" d="M27,3.4c0.4-0.3,0.5-0.9,0.2-1.3c-0.3-0.4-0.9-0.5-1.3-0.2c-2.3,1.7-3.5,3.4-3.4,5.1c0,1.3,0.6,2,1.2,2.8
	c0.5,0.6,1,1.3,1.3,2.4c0.4,1.7-0.1,3.3-0.6,4.6c-0.5,1.5-1.3,2.9-2.3,4.1c-0.3,0.4-0.3,1,0.1,1.3c0.4,0.3,1,0.3,1.3-0.1
	c1.2-1.4,2.1-3,2.7-4.7c0.5-1.4,1.1-3.4,0.6-5.6c-0.4-1.5-1.1-2.5-1.7-3.2c-0.5-0.7-0.8-1-0.8-1.6C24.3,5.6,25.8,4.2,27,3.4z"/>
<path class="st0" d="M35.4,7.5C35.4,7.5,35.4,7.5,35.4,7.5c-0.5,0-0.9,0.4-0.9,0.9c0,1.5-0.3,3-0.9,4.4c-1.2,2.7-3.1,4.3-4.5,5.2
	c-0.4,0.3-0.6,0.9-0.3,1.3c0.2,0.3,0.5,0.4,0.8,0.4c0.2,0,0.3,0,0.5-0.1c1.6-1,3.9-2.9,5.2-6c0.7-1.6,1.1-3.4,1.1-5.2
	C36.4,7.9,35.9,7.5,35.4,7.5z"/>
<path class="st0" d="M48.5,12.3c-0.5-0.3-1-0.1-1.3,0.4c-1.3,2.3-2.9,3.9-4.8,4.7c-1.4,0.6-2.5,0.7-3.7,0.8c-1.3,0.1-2.6,0.2-4.1,1
	c-2.4,1.3-4.1,3.8-5.1,7.5c-0.1,0.5,0.1,1,0.6,1.1c0.5,0.2,1.1-0.1,1.2-0.6c0.9-3.2,2.3-5.3,4.2-6.3c1.1-0.6,2.2-0.7,3.4-0.8
	c1.3-0.1,2.7-0.2,4.3-0.9c2.3-1,4.2-2.9,5.7-5.5C49.1,13.1,49,12.6,48.5,12.3z"/>
<path class="st0" d="M49,29.8c-0.3-0.4-0.8-0.6-1.3-0.3c-1.5,0.9-2.9,1.3-4,1c-0.7-0.2-1.2-0.5-1.8-0.9c-0.5-0.3-1-0.7-1.7-1
	c-2.1-0.9-4.8-0.6-8,0.9c-0.5,0.2-0.7,0.8-0.4,1.2c0.2,0.5,0.8,0.7,1.2,0.4c2.7-1.3,4.8-1.6,6.4-0.8c0.5,0.2,0.9,0.5,1.3,0.8
	c0.6,0.5,1.4,1,2.5,1.3c0.4,0.1,0.8,0.1,1.2,0.1c1.3,0,2.8-0.5,4.2-1.4C49.1,30.8,49.3,30.2,49,29.8z"/>
<path class="st0" d="M51.2,20.8c-0.1-0.5-0.5-0.9-1.1-0.8c0.1,0,0.2,0,0,0c-0.6,0.1-0.2,0,0,0c-1,0.1-1.9,0.4-2.8,0.9
	c-1.2,0.6-2.3,1.5-3.2,2.6c-0.3,0.4-0.3,0.9,0.1,1.3c0.4,0.4,1,0.4,1.4-0.1c0.7-0.9,1.6-1.6,2.6-2.1c0.7-0.4,1.5-0.6,2.3-0.7
	C50.9,21.8,51.3,21.3,51.2,20.8z"/>
<path class="st0" d="M39.2,23.5c-0.6,0-1.1,0.5-1.1,1.1c0,0.6,0.5,1.1,1.1,1.1s1.1-0.5,1.1-1.1C40.3,24,39.8,23.5,39.2,23.5z"/>
<path class="st0" d="M41.4,10c-0.6,0-1.1,0.5-1.1,1.1s0.5,1.1,1.1,1.1c0.6,0,1.1-0.5,1.1-1.1S42,10,41.4,10z"/>
<path class="st0" d="M33.5,0c-0.6,0-1.1,0.5-1.1,1.1c0,0.6,0.5,1.1,1.1,1.1c0.6,0,1.1-0.5,1.1-1.1C34.5,0.5,34.1,0,33.5,0z"/>
<path class="st0" d="M50.9,6.7c-0.6,0-1.1,0.5-1.1,1.1c0,0.6,0.5,1.1,1.1,1.1c0.6,0,1.1-0.5,1.1-1.1C51.9,7.1,51.4,6.7,50.9,6.7z"/>
<path class="st0" d="M44.4,2c-0.6,0-1.1,0.5-1.1,1.1c0,0.6,0.5,1.1,1.1,1.1c0.6,0,1.1-0.5,1.1-1.1C45.5,2.4,45,2,44.4,2z"/>
<path class="st0" d="M29.6,5.7c-0.6,0-1.1,0.5-1.1,1.1c0,0.6,0.5,1.1,1.1,1.1c0.6,0,1.1-0.5,1.1-1.1C30.6,6.1,30.1,5.7,29.6,5.7z"/>
<path class="st0" d="M51.2,25.5c-0.6,0-1.1,0.5-1.1,1.1c0,0.6,0.5,1.1,1.1,1.1c0.6,0,1.1-0.5,1.1-1.1C52.3,26,51.8,25.5,51.2,25.5z"
	/>
<path class="st0" d="M20.4,13.8c-0.6,0-1.1,0.5-1.1,1.1c0,0.6,0.5,1.1,1.1,1.1c0.6,0,1.1-0.5,1.1-1.1C21.5,14.3,21,13.8,20.4,13.8z"
	/>
<path class="st0" d="M16.8,36.8c-1.6,0-2.9,1.3-2.9,2.9c0,1.6,1.3,2.9,2.9,2.9c1.6,0,2.9-1.3,2.9-2.9C19.7,38.1,18.4,36.8,16.8,36.8
	z M16.8,40.7c-0.6,0-1-0.5-1-1c0-0.6,0.5-1,1-1c0.6,0,1,0.5,1,1S17.4,40.7,16.8,40.7z"/>
<path class="st0" d="M12,43.2c-0.3-0.7-0.8-1.3-1.5-1.6c-0.5-0.2-1,0-1.2,0.5c-0.2,0.5,0,1,0.5,1.2c0.3,0.1,0.4,0.3,0.5,0.6
	c0.1,0.3,0.1,0.5,0,0.8c-0.2,0.5-0.9,0.8-1.4,0.5c-0.5-0.2-1,0-1.2,0.5c-0.2,0.5,0,1,0.5,1.2c0.4,0.2,0.8,0.3,1.2,0.3
	c1.1,0,2.2-0.6,2.7-1.7C12.3,44.7,12.3,43.9,12,43.2z"/>
</svg>
