<?xml version="1.0" encoding="utf-8"?>
<!-- Generator: Adobe Illustrator 24.3.0, SVG Export Plug-In . SVG Version: 6.00 Build 0)  -->
<svg version="1.1" id="Layer_1" xmlns="http://www.w3.org/2000/svg" xmlns:xlink="http://www.w3.org/1999/xlink" x="0px" y="0px"
	 viewBox="0 0 54 54" style="enable-background:new 0 0 54 54;" xml:space="preserve">
<style type="text/css">
	.st0{fill:#FFFFFF;}
</style>
<g>
	<path class="st0" d="M46.3,20.8c0-10.7-8.6-19.3-19.3-19.3S7.7,10.1,7.7,20.7c0,0,0,0,0,0C3.4,21,0,24.6,0,28.9v1
		c0,4.5,3.7,8.2,8.2,8.2h0.4l3.4,5.4c2.4,3.9,6.5,6.1,11,6.1h0.7c0.4,1.6,1.9,2.9,3.7,2.9c2.1,0,3.9-1.7,3.9-3.9s-1.7-3.9-3.9-3.9
		c-1.8,0-3.3,1.3-3.7,2.9h-0.7c-3.9,0-7.4-2-9.4-5.3l-2.8-4.4h0.7c1.1,0,1.9-0.9,1.9-1.9V22.7c0-1.1-0.9-1.9-1.9-1.9H9.6
		c0-9.6,7.8-17.4,17.4-17.4s17.4,7.8,17.4,17.4h-1.9c-1.1,0-1.9,0.9-1.9,1.9v13.5c0,1.1,0.9,1.9,1.9,1.9h3.4c4.5,0,8.2-3.7,8.2-8.2
		v-1C54,24.6,50.6,21,46.3,20.8z M27.5,46.8c1.1,0,1.9,0.9,1.9,1.9s-0.9,1.9-1.9,1.9c-1.1,0-1.9-0.9-1.9-1.9S26.4,46.8,27.5,46.8z
		 M11.6,22.7v13.5H8.2c-3.5,0-6.3-2.8-6.3-6.3v-1c0-3.5,2.8-6.3,6.3-6.3H11.6z M52.1,29.9c0,3.5-2.8,6.3-6.3,6.3h-3.4V22.7h3.4
		c3.5,0,6.3,2.8,6.3,6.3V29.9z"/>
	<path class="st0" d="M35,8.7c-0.1,0-0.2-0.1-0.4-0.2c-0.1-0.1-0.3-0.2-0.4-0.2c-0.4-0.3-1.1-0.1-1.3,0.3c-0.2,0.5-0.1,1,0.3,1.3
		c0.1,0,0.2,0.1,0.4,0.2c0.1,0.1,0.3,0.2,0.4,0.2c0.1,0.1,0.3,0.1,0.5,0.1c0.3,0,0.6-0.1,0.8-0.5C35.6,9.6,35.5,9,35,8.7z"/>
	<path class="st0" d="M27,6.3c-4.1,0-8,1.8-10.6,4.9c-0.3,0.4-0.3,1,0.1,1.4c0.2,0.1,0.4,0.2,0.6,0.2c0.3,0,0.5-0.1,0.7-0.3
		c2.3-2.7,5.6-4.2,9.2-4.2c0.9,0,1.7,0.1,2.6,0.3c0.5,0.1,1-0.2,1.2-0.7c0.1-0.5-0.2-1-0.7-1.2C29,6.4,28,6.3,27,6.3z"/>
</g>
</svg>
