<svg width="34" height="46" viewBox="0 0 34 46" fill="none" xmlns="http://www.w3.org/2000/svg">
<g id="Group">
<path id="Vector" d="M17.0134 45.275C16.6395 45.275 16.2885 45.09 16.0779 44.7782L2.78173 25.0641C1.20088 22.5518 0.365234 19.6736 0.365234 16.7454C0.365234 7.91237 7.82803 0.724976 16.9999 0.724976C26.1732 0.724976 33.6346 7.91237 33.6346 16.7454C33.6346 19.6668 32.8084 22.5288 31.2451 25.0196L17.9463 44.7782C17.7384 45.09 17.3874 45.275 17.0134 45.275ZM16.9999 2.97948C9.07138 2.97948 2.61973 9.15438 2.61973 16.7454C2.61973 19.2483 3.32848 21.6986 4.67173 23.8343L17.0107 42.1268L29.3578 23.7924C30.6822 21.6783 31.3815 19.2416 31.3815 16.7454C31.3801 9.15438 24.9285 2.97948 16.9999 2.97948Z" fill="#5AC8FF"/>
<path id="Vector_2" d="M17.0004 24.157C12.7357 24.157 9.26758 20.8063 9.26758 16.6847C9.26758 12.5659 12.7357 9.21381 17.0004 9.21381C21.265 9.21381 24.7345 12.5659 24.7345 16.6847C24.7345 20.8063 21.2637 24.157 17.0004 24.157ZM17.0004 11.4683C13.9804 11.4683 11.5234 13.8092 11.5234 16.6847C11.5234 19.5602 13.9804 21.9025 17.0004 21.9025C20.0203 21.9025 22.4787 19.5616 22.4787 16.6847C22.4787 13.8092 20.019 11.4683 17.0004 11.4683Z" fill="#5AC8FF"/>
</g>
</svg>
