<svg width="54" height="54" viewBox="0 0 54 54" fill="none" xmlns="http://www.w3.org/2000/svg">
<g clip-path="url(#clip0_4541_1298)">
<path d="M50.872 4.93902H48.9787V2.30488C48.9787 1.07012 47.9909 0 46.6738 0H31.0335C29.7988 0 28.811 0.987802 28.811 2.30488V4.93902H3.12805C1.39939 4.93902 0 6.33841 0 8.06706V10.5366V17.122V23.7074V30.2927V36.878V43.4634V45.9329C0 47.6616 1.39939 49.061 3.12805 49.061H14.8171V52.6829H7.2439C6.83235 52.6829 6.58537 52.9299 6.58537 53.3415C6.58537 53.6707 6.83235 54 7.2439 54H15.4756H38.5244H46.7561C47.0854 54 47.4146 53.7531 47.4146 53.3415C47.4146 53.0122 47.1677 52.6829 46.7561 52.6829H39.1006V48.9787H50.872C52.6006 48.9787 54 47.5793 54 45.8506V43.3811V7.98478C53.9177 6.33841 52.5183 4.93902 50.872 4.93902ZM30.0457 11.1128V10.4543V9.87802V6.17378V5.59756V4.93902V2.30488C30.0457 1.72866 30.5396 1.23476 31.1159 1.23476H46.7561C47.3323 1.23476 47.8262 1.72866 47.8262 2.30488V4.93902V5.59756V6.2561V27.0824C47.8262 27.6585 47.3323 28.1524 46.7561 28.1524H36.6311H35.9726H35.3963H31.0335C30.4574 28.1524 29.9634 27.6585 29.9634 27.0824V11.1128H30.0457ZM31.1159 29.2226H35.3963V37.8659H11.936V11.1128H28.811V27C28.811 28.2348 29.7988 29.2226 31.1159 29.2226ZM1.23476 11.1128H5.59756C6.17378 11.1128 6.66768 11.6067 6.66768 12.1829V16.4634H1.23476V11.1128ZM1.23476 17.6982H6.58537V23.0488H1.23476V17.6982ZM1.23476 24.2835H6.58537V29.6341H1.23476V24.2835ZM1.23476 30.8689H6.58537V35.2317C6.58537 35.7256 6.09146 36.2195 5.59756 36.2195H1.23476V30.8689ZM37.8659 52.6829H16.0518V48.9787H37.8659V52.6829ZM52.6829 45.9329C52.6829 46.9207 51.8598 47.8262 50.7896 47.8262H38.4421H15.3933H3.04573C2.05793 47.8262 1.15244 47.003 1.15244 45.9329V44.0396H52.6829V45.9329ZM52.6829 42.8049H1.23476V37.4543H5.59756C6.83235 37.4543 7.90243 36.4665 7.90243 35.1494V30.2104V23.625V17.0396V12.1006C7.90243 10.8659 6.91463 9.79574 5.59756 9.79574H1.23476V8.06706C1.23476 7.07926 2.05793 6.17378 3.12805 6.17378H28.811V9.87802H11.3598C11.0305 9.87802 10.7012 10.125 10.7012 10.5366V38.5244C10.7012 38.8537 10.9482 39.1829 11.3598 39.1829H36.0549C36.3841 39.1829 36.7134 38.936 36.7134 38.5244V29.2226H46.8385C48.0732 29.2226 49.1433 28.2348 49.1433 26.9177V6.17378H51.0366C52.0244 6.17378 52.9299 6.99698 52.9299 8.06706V42.8049H52.6829Z" fill="white"/>
<path d="M26.9999 46.7561C27.4545 46.7561 27.8231 46.3876 27.8231 45.9329C27.8231 45.4783 27.4545 45.1098 26.9999 45.1098C26.5453 45.1098 26.1768 45.4783 26.1768 45.9329C26.1768 46.3876 26.5453 46.7561 26.9999 46.7561Z" fill="white"/>
<path d="M31.6924 6.00915C31.6924 6.09147 31.6924 6.09147 31.6924 6.17378C31.7747 7.57317 32.9271 8.64331 34.3265 8.64331C35.5613 8.64331 36.6314 7.7378 36.8783 6.58537H45.4393C45.6863 6.58537 45.9332 6.42074 46.0155 6.17378C46.0978 6.09147 46.0978 6.00915 46.0978 6.00915C46.0978 5.84452 46.0155 5.67989 45.9332 5.59757C45.8509 5.43293 45.6863 5.35061 45.4393 5.35061H36.9607C36.9607 5.18598 36.8783 5.10366 36.796 4.93903C36.3844 3.95122 35.4789 3.29269 34.3265 3.29269C33.1741 3.29269 32.2686 3.95122 31.857 4.93903C31.7747 5.10366 31.6924 5.35061 31.6924 5.59757C31.6924 5.67989 31.6924 5.84452 31.6924 6.00915ZM33.0094 5.59757C33.0094 5.51525 33.0917 5.43293 33.0917 5.35061C33.1741 5.18598 33.2564 5.02135 33.3387 4.93903C33.5857 4.69208 33.9972 4.52744 34.4089 4.52744C34.4911 4.52744 34.5735 4.52744 34.7381 4.52744C34.985 4.60976 35.232 4.77439 35.3966 4.93903C35.4789 5.02135 35.6436 5.18598 35.6436 5.35061C35.6436 5.43293 35.7259 5.51525 35.7259 5.59757C35.7259 5.7622 35.8082 5.84452 35.8082 6.00915C35.8082 6.09147 35.8082 6.17378 35.8082 6.25611C35.8082 6.42074 35.7259 6.50305 35.6436 6.66769C35.3966 7.16162 34.9028 7.49088 34.3265 7.49088C33.7503 7.49088 33.2564 7.16162 33.0094 6.66769C32.9271 6.58537 32.9271 6.42074 32.9271 6.33842C32.9271 6.33842 32.9271 6.33842 32.9271 6.25611C32.9271 6.17378 32.9271 6.09147 32.9271 6.00915C32.9271 5.84452 32.9271 5.67989 33.0094 5.59757Z" fill="white"/>
<path d="M32.3512 12.3476H35.3969H36.0554H36.714H39.2658C39.5951 13.5 40.5829 14.4055 41.8176 14.4055C43.0524 14.4055 44.1226 13.5 44.3695 12.3476H45.5219C45.8512 12.3476 46.1804 12.1006 46.1804 11.689C46.1804 11.2774 45.9335 11.0305 45.5219 11.0305H44.4518C44.2048 9.87802 43.1347 8.97257 41.8176 8.97257C40.5006 8.97257 39.5128 9.87802 39.1835 11.0305H36.6317H35.9731H35.3969H32.2689C31.9396 11.0305 31.6104 11.2774 31.6104 11.689C31.6104 12.1006 31.9396 12.3476 32.3512 12.3476ZM40.5006 11.1128C40.7476 10.6189 41.2415 10.2896 41.8176 10.2896C41.9 10.2896 41.9823 10.2896 42.1469 10.2896C42.5585 10.3719 42.9701 10.7012 43.1347 11.1128C43.217 11.2774 43.2993 11.5244 43.2993 11.689C43.2993 11.936 43.217 12.1006 43.1347 12.3476C42.8878 12.8415 42.3939 13.1707 41.8176 13.1707C41.2415 13.1707 40.7476 12.8415 40.5006 12.3476C40.4183 12.2652 40.4183 12.1006 40.4183 12.0183C40.4183 11.936 40.4183 11.8537 40.4183 11.689C40.3359 11.5244 40.4183 11.2774 40.5006 11.1128Z" fill="white"/>
<path d="M32.3496 18.1098H34.3253C34.4899 18.7683 34.9015 19.3445 35.4777 19.7561C35.6423 19.8384 35.8893 20.0031 36.1362 20.0031C36.3009 20.0854 36.5478 20.0854 36.7948 20.0854C36.877 20.0854 36.9594 20.0854 37.0417 20.0854C38.2765 20.0854 39.3466 19.1799 39.5935 18.0274H45.685C46.0142 18.0274 46.3435 17.7805 46.3435 17.3689C46.3435 17.0396 46.0966 16.7104 45.685 16.7104H39.6759C39.4289 15.5579 38.3588 14.6524 37.0417 14.6524C36.9594 14.6524 36.877 14.6524 36.7948 14.6524C36.5478 14.6524 36.3831 14.7348 36.1362 14.7348C35.8893 14.8171 35.7246 14.8994 35.4777 14.9817C34.9015 15.3933 34.4899 15.9695 34.3253 16.6281H32.432C32.1027 16.6281 31.7734 16.875 31.7734 17.2866C31.7734 17.6982 31.9381 18.1098 32.3496 18.1098ZM35.56 16.875C35.6423 16.6281 35.807 16.4634 36.0539 16.2988C36.2185 16.1341 36.4655 16.0518 36.7124 16.0518C36.7948 16.0518 36.877 16.0518 36.9594 16.0518C37.0417 16.0518 37.124 16.0518 37.2887 16.0518C37.7003 16.1341 38.1118 16.4634 38.2765 16.875C38.3588 17.0396 38.4411 17.2866 38.4411 17.4512C38.4411 17.6982 38.3588 17.8628 38.2765 18.1098C38.0295 18.6037 37.5356 18.9329 36.9594 18.9329C36.877 18.9329 36.7948 18.9329 36.7124 18.9329C36.4655 18.9329 36.3009 18.8506 36.0539 18.686C35.8893 18.5213 35.7246 18.3567 35.56 18.1098C35.4777 18.0274 35.4777 17.8628 35.4777 17.7805C35.4777 17.6982 35.4777 17.6159 35.4777 17.4512C35.3954 17.2866 35.4777 17.0396 35.56 16.875Z" fill="white"/>
<path d="M32.3512 23.872H35.3969H36.0554H36.714H40.9122C41.1591 25.0244 42.2292 25.9299 43.464 25.9299C44.9457 25.9299 46.0981 24.7774 46.0981 23.2957C46.0981 21.814 44.8634 20.5793 43.3817 20.5793C42.1469 20.5793 41.0768 21.4848 40.7476 22.6372H36.5494H35.8908H35.3969H32.2689C31.9396 22.6372 31.6104 22.8841 31.6104 23.2957C31.6104 23.7074 31.9396 23.872 32.3512 23.872ZM41.9823 22.9665C41.9823 22.8018 42.0646 22.7195 42.0646 22.6372C42.3115 22.1433 42.8054 21.814 43.3817 21.814C43.9579 21.814 44.4518 22.1433 44.6987 22.6372C44.7811 22.8018 44.8634 23.0488 44.8634 23.2134C44.8634 23.4604 44.7811 23.625 44.6987 23.872C44.5341 24.2835 44.2048 24.5305 43.7109 24.6128C43.6287 24.6128 43.5463 24.6128 43.3817 24.6128C42.8054 24.6128 42.3115 24.2835 42.0646 23.7896C41.9823 23.625 41.9 23.3781 41.9 23.1311C41.9823 23.1311 41.9823 23.0488 41.9823 22.9665Z" fill="white"/>
<path d="M48.5666 34.9848L40.3349 32.1037C40.088 32.0213 39.841 32.1037 39.6764 32.2683C39.5117 32.4329 39.5117 32.6799 39.5117 32.9268L42.3105 41.1585C42.3928 41.4055 42.6398 41.5701 42.8867 41.5701C43.1337 41.5701 43.3806 41.4055 43.463 41.2408L45.027 37.7012L48.5666 36.1372C48.8136 36.0549 48.9782 35.8079 48.8959 35.561C48.9782 35.2317 48.8136 35.0671 48.5666 34.9848ZM44.3685 36.6311C44.2038 36.7134 44.1215 36.7957 44.0392 36.9604L42.9691 39.2652L41.1581 33.75L46.6733 35.6433L44.3685 36.6311Z" fill="white"/>
<path d="M27.1647 21.814H25.93C25.6008 21.814 25.2715 22.061 25.2715 22.4726C25.2715 22.8841 25.5184 23.1311 25.93 23.1311H26.5885V23.7896C26.5885 24.1189 26.8355 24.4482 27.2471 24.4482C27.5763 24.4482 27.9056 24.2012 27.9056 23.7896V22.5549C27.8233 22.061 27.494 21.814 27.1647 21.814Z" fill="white"/>
<path d="M15.2282 21.814H13.9935C13.6642 21.814 13.335 22.061 13.335 22.4726V23.7073C13.335 24.0366 13.5819 24.3659 13.9935 24.3659C14.3228 24.3659 14.652 24.1189 14.652 23.7073V23.0488H15.3106C15.6398 23.0488 15.9691 22.8018 15.9691 22.3902C15.9691 21.9787 15.5575 21.814 15.2282 21.814Z" fill="white"/>
<path d="M13.9935 31.1159C14.3228 31.1159 14.652 30.8689 14.652 30.4573V27.5762C14.652 27.247 14.405 26.9177 13.9935 26.9177C13.5819 26.9177 13.335 27.1646 13.335 27.5762V30.4573C13.4172 30.7866 13.6642 31.1159 13.9935 31.1159Z" fill="white"/>
<path d="M15.2285 34.9848H14.57V34.3262C14.57 33.997 14.3231 33.6677 13.9115 33.6677C13.4998 33.6677 13.2529 33.9146 13.2529 34.3262V35.561C13.2529 35.8902 13.4998 36.2195 13.9115 36.2195H15.1462C15.4755 36.2195 15.8048 35.9726 15.8048 35.561C15.8048 35.1494 15.5578 34.9848 15.2285 34.9848Z" fill="white"/>
<path d="M22.0611 34.9848H19.18C18.8507 34.9848 18.5215 35.2317 18.5215 35.6433C18.5215 36.0549 18.7684 36.3018 19.18 36.3018H22.0611C22.3904 36.3018 22.7196 36.0549 22.7196 35.6433C22.7196 35.2317 22.3904 34.9848 22.0611 34.9848Z" fill="white"/>
<path d="M27.1641 33.75C26.8348 33.75 26.5055 33.997 26.5055 34.4085V35.0671H25.847C25.5177 35.0671 25.1885 35.314 25.1885 35.7256C25.1885 36.1372 25.4355 36.3841 25.847 36.3841H27.1641C27.4933 36.3841 27.8226 36.1372 27.8226 35.7256V34.4909C27.8226 33.997 27.4933 33.75 27.1641 33.75Z" fill="white"/>
<path d="M27.1644 26.9177C26.8351 26.9177 26.5059 27.1646 26.5059 27.5762V30.4573C26.5059 30.7866 26.7528 31.1159 27.1644 31.1159C27.4937 31.1159 27.8229 30.8689 27.8229 30.4573V27.5762C27.8229 27.247 27.4937 26.9177 27.1644 26.9177Z" fill="white"/>
<path d="M27.1641 17.6982C26.8348 17.6982 26.5055 17.9451 26.5055 18.3567V18.9329H25.847C25.5177 18.9329 25.1885 19.1799 25.1885 19.5915C25.1885 19.9207 25.4355 20.25 25.847 20.25H27.1641C27.4933 20.25 27.8226 20.003 27.8226 19.5915V18.3567C27.8226 17.9451 27.4933 17.6982 27.1641 17.6982Z" fill="white"/>
<path d="M27.1647 12.3476H25.93C25.6008 12.3476 25.2715 12.5945 25.2715 13.0061C25.2715 13.3354 25.5184 13.6646 25.93 13.6646H26.5885V14.3232C26.5885 14.6524 26.8355 14.9817 27.2471 14.9817C27.6586 14.9817 27.9056 14.7348 27.9056 14.3232V13.0884C27.8233 12.5945 27.494 12.3476 27.1647 12.3476Z" fill="white"/>
<path d="M19.0977 13.5823H21.9788C22.308 13.5823 22.6373 13.3354 22.6373 12.9238C22.6373 12.5122 22.3904 12.3476 22.0611 12.3476H19.18C18.8507 12.3476 18.5215 12.5945 18.5215 13.0061C18.5215 13.3354 18.7684 13.5823 19.0977 13.5823Z" fill="white"/>
<path d="M15.2282 12.3476H13.9935C13.6642 12.3476 13.335 12.5945 13.335 13.0061V14.2409C13.335 14.5701 13.5819 14.8994 13.9935 14.8994C14.405 14.8994 14.652 14.6524 14.652 14.2409V13.5823H15.3106C15.6398 13.5823 15.9691 13.3354 15.9691 12.9238C15.9691 12.5122 15.5575 12.3476 15.2282 12.3476Z" fill="white"/>
<path d="M15.2285 18.9329H14.57V18.2744C14.57 17.9451 14.3231 17.6158 13.9115 17.6158C13.4998 17.6158 13.2529 17.8628 13.2529 18.2744V19.5091C13.2529 19.8384 13.4998 20.1677 13.9115 20.1677H15.1462C15.4755 20.1677 15.8048 19.9207 15.8048 19.5091C15.8048 19.0976 15.5578 18.9329 15.2285 18.9329Z" fill="white"/>
<path d="M19.0977 20.1677H21.9788C22.308 20.1677 22.6373 19.9207 22.6373 19.5091C22.6373 19.0976 22.3904 18.9329 22.0611 18.9329H19.18C18.8507 18.9329 18.5215 19.1799 18.5215 19.5915C18.5215 19.9207 18.7684 20.1677 19.0977 20.1677Z" fill="white"/>
</g>
<defs>
<clipPath id="clip0_4541_1298">
<rect width="54" height="54" fill="white"/>
</clipPath>
</defs>
</svg>
