<?xml version="1.0" encoding="utf-8"?>
<!-- Generator: Adobe Illustrator 24.3.0, SVG Export Plug-In . SVG Version: 6.00 Build 0)  -->
<svg version="1.1" id="Glyph" xmlns="http://www.w3.org/2000/svg" xmlns:xlink="http://www.w3.org/1999/xlink" x="0px" y="0px"
	 viewBox="0 0 200 200" style="enable-background:new 0 0 200 200;" xml:space="preserve">
<style type="text/css">
	.st0{fill:#FFFFFF;}
</style>
<g>
	<g>
		<g>
			<path class="st0" d="M159.3,106.6c-4,0-7.5,1.8-9.9,4.6c-2.4-2.8-5.9-4.6-9.9-4.6s-7.5,1.8-9.9,4.6c-2.4-2.8-5.9-4.6-9.9-4.6
				c-2.4,0-4.6,0.7-6.6,1.8V98.2c0.4-0.1,0.9-0.2,1.3-0.4c0.3-0.1,0.6-0.2,1-0.3c1-0.3,2-0.7,2.9-1.1c0.3-0.1,0.5-0.2,0.8-0.3
				c1.1-0.5,2.2-1,3.3-1.5c0.1,0,0.1-0.1,0.2-0.1c4.6-2.4,8.8-5.4,12.5-9.1c0.1-0.1,0.1-0.3,0.2-0.4c8.8-9,14.1-21.3,14.1-34.4
				c0-13.6-5.4-26.3-15.3-35.8c-9.9-9.4-22.8-14.2-36.5-13.6C73.3,2.5,53.2,21.6,50.9,45.7c-1.5,15.1,4,29.4,14,39.6
				c0.1,0.1,0.1,0.2,0.1,0.2c0.2,0.2,0.5,0.4,0.7,0.7c0.2,0.2,0.3,0.3,0.5,0.5c0.8,0.8,1.7,1.5,2.6,2.3c0.3,0.2,0.5,0.4,0.8,0.6
				c0.9,0.7,1.8,1.3,2.7,2c0.2,0.2,0.5,0.3,0.7,0.5c1.1,0.7,2.3,1.5,3.5,2.1c0.3,0.2,0.6,0.3,0.8,0.4c0.9,0.5,1.9,0.9,2.8,1.4
				c0.4,0.2,0.9,0.4,1.3,0.6c0.9,0.4,1.8,0.7,2.7,1c0.4,0.1,0.9,0.3,1.3,0.4c0.5,0.1,1,0.3,1.4,0.4v49.7l-10.7-10.7
				c-2.8-2.8-6.6-4.4-10.6-4.4c-8.2,0-14.9,6.7-14.9,14.9c0,4,1.6,7.7,4.4,10.6l31.8,31.8v5.2c0,1.8,1.5,3.3,3.3,3.3h75.7
				c1.8,0,3.3-1.5,3.3-3.3v-12.4l2.9-5.9c0.2-0.5,0.3-1,0.3-1.5v-56C172.4,112.5,166.5,106.6,159.3,106.6z M65.5,75.9
				c-6.1-8.3-9.2-18.7-8.1-29.6C59.5,25.4,76.9,8.9,97.9,7.9c11.9-0.6,23.1,3.6,31.6,11.8c8.6,8.2,13.3,19.2,13.3,31
				c0,9.3-3.1,18.1-8.3,25.2c-3.1-9.8-10.3-17.8-19.7-22c3.1-3.5,5-8.1,5-13.1c0-10.9-8.9-19.8-19.8-19.8s-19.8,8.9-19.8,19.8
				c0,5,1.9,9.6,5,13.1C75.9,58.1,68.7,66.2,65.5,75.9z M113.2,40.8c0,4.9-2.7,9.1-6.6,11.3c0,0,0,0-0.1,0c-0.9,0.5-1.9,0.9-2.8,1.2
				c-0.2,0.1-0.3,0.1-0.5,0.2c-0.4,0.1-0.7,0.2-1.1,0.2c-0.6,0.1-1.2,0.2-1.8,0.2c-0.2,0-0.4,0-0.6,0c-0.6,0-1.2-0.1-1.8-0.2
				c-0.4-0.1-0.7-0.1-1.1-0.2c-0.2,0-0.3-0.1-0.5-0.2c-1-0.3-1.9-0.7-2.8-1.2c0,0,0,0-0.1,0c-3.9-2.3-6.6-6.5-6.6-11.3
				c0-7.3,5.9-13.2,13.2-13.2C107.3,27.6,113.2,33.5,113.2,40.8z M86.8,80.3v11.1c-1.4-0.4-2.7-1-4-1.5c-0.4-0.2-0.7-0.3-1.1-0.5
				C80.8,89,79.9,88.5,79,88c-0.4-0.2-0.8-0.5-1.3-0.7c-0.9-0.5-1.7-1.1-2.5-1.7c-0.4-0.3-0.7-0.5-1.1-0.8C73,84,72,83.1,71,82.2
				c-0.1-0.1-0.2-0.2-0.3-0.3c1.9-11,9.9-20.1,20.6-23.4c2.6,1.3,5.5,2,8.6,2s6-0.7,8.6-2c10.7,3.2,18.7,12.3,20.6,23.3
				c-0.4,0.4-0.9,0.8-1.3,1.2c-0.1,0.1-0.2,0.2-0.3,0.2c-1.6,1.3-3.2,2.5-5,3.6c-0.1,0-0.2,0.1-0.2,0.2c-0.6,0.4-1.3,0.7-1.9,1.1
				c-0.6,0.3-1.2,0.7-1.9,1c-0.5,0.3-1.1,0.5-1.6,0.8c-1.2,0.5-2.3,1-3.5,1.3c-0.1,0-0.1,0.1-0.2,0.1v-11c0-7.3-5.9-13.2-13.2-13.2
				S86.8,73,86.8,80.3z M165.9,175l-2.9,5.9c-0.2,0.5-0.3,1-0.3,1.5v9.9H93.4V189c0-0.9-0.3-1.7-1-2.3l-32.8-32.8
				c-1.6-1.6-2.4-3.7-2.4-5.9c0-4.6,3.7-8.3,8.3-8.3c2.2,0,4.3,0.9,5.9,2.4l16.3,16.3c0.9,0.9,2.4,1.2,3.6,0.7s2-1.7,2-3V95.7V80.3
				c0-3.6,3-6.6,6.6-6.6s6.6,3,6.6,6.6v15.4v24.1v19.8h6.6v-19.8c0-3.6,3-6.6,6.6-6.6s6.6,3,6.6,6.6v19.8h6.6v-19.8
				c0-3.6,3-6.6,6.6-6.6s6.6,3,6.6,6.6v19.8h6.6v-19.8c0-3.6,3-6.6,6.6-6.6s6.6,2.9,6.6,6.6L165.9,175L165.9,175z"/>
		</g>
	</g>
	<g>
		<g>
			<path class="st0" d="M34.9,63.1c3.6-3,5.9-7.5,5.9-12.5c0-9.1-7.4-16.5-16.5-16.5S7.8,41.6,7.8,50.7c0,5,2.3,9.5,5.9,12.5
				C6.3,67,1.2,74.7,1.2,83.6v9.9c0,1.8,1.5,3.3,3.3,3.3H44c1.8,0,3.3-1.5,3.3-3.3v-9.9C47.3,74.7,42.3,67,34.9,63.1z M24.3,40.8
				c5.4,0,9.9,4.4,9.9,9.9s-4.4,9.9-9.9,9.9s-9.9-4.4-9.9-9.9S18.8,40.8,24.3,40.8z M40.7,90.2H7.8v-6.6c0-9.1,7.4-16.5,16.5-16.5
				s16.5,7.4,16.5,16.5L40.7,90.2L40.7,90.2z"/>
		</g>
	</g>
	<g>
		<g>
			<path class="st0" d="M186.3,59.9c3.6-3,5.9-7.5,5.9-12.5c0-9.1-7.4-16.5-16.5-16.5s-16.5,7.4-16.5,16.5c0,5,2.3,9.5,5.9,12.5
				c-7.4,3.8-12.4,11.6-12.4,20.4v9.9c0,1.8,1.5,3.3,3.3,3.3h39.5c1.8,0,3.3-1.5,3.3-3.3v-9.9C198.8,71.4,193.7,63.7,186.3,59.9z
				 M175.7,37.5c5.4,0,9.9,4.4,9.9,9.9s-4.4,9.9-9.9,9.9s-9.9-4.4-9.9-9.9S170.3,37.5,175.7,37.5z M192.2,86.9h-32.9v-6.6
				c0-9.1,7.4-16.5,16.5-16.5s16.5,7.4,16.5,16.5L192.2,86.9L192.2,86.9z"/>
		</g>
	</g>
</g>
</svg>
