<svg width="295" height="32" viewBox="0 0 295 32" fill="none" xmlns="http://www.w3.org/2000/svg">
<rect x="1" y="27" width="294" height="1" rx="0.5" fill="#D9D9D9"/>
<rect y="23" width="1" height="9" rx="0.5" fill="#D9D9D9"/>
<path d="M9.876 14.098C9.64267 14.098 9.46067 14.0327 9.33 13.902C9.20867 13.7713 9.148 13.5893 9.148 13.356V4.774C9.148 4.53133 9.20867 4.34933 9.33 4.228C9.46067 4.09733 9.64267 4.032 9.876 4.032C10.1093 4.032 10.2867 4.09733 10.408 4.228C10.5387 4.34933 10.604 4.53133 10.604 4.774V13.356C10.604 13.5893 10.5433 13.7713 10.422 13.902C10.3007 14.0327 10.1187 14.098 9.876 14.098ZM15.8201 14.098C15.6054 14.098 15.4374 14.0373 15.3161 13.916C15.1948 13.7947 15.1341 13.622 15.1341 13.398V4.76C15.1341 4.52667 15.1901 4.34933 15.3021 4.228C15.4234 4.09733 15.5821 4.032 15.7781 4.032C15.9461 4.032 16.0721 4.06467 16.1561 4.13C16.2494 4.186 16.3568 4.29333 16.4781 4.452L22.2461 12.054H21.8961V4.718C21.8961 4.50333 21.9521 4.33533 22.0641 4.214C22.1854 4.09267 22.3534 4.032 22.5681 4.032C22.7921 4.032 22.9601 4.09267 23.0721 4.214C23.1841 4.33533 23.2401 4.50333 23.2401 4.718V13.412C23.2401 13.6267 23.1841 13.7947 23.0721 13.916C22.9694 14.0373 22.8294 14.098 22.6521 14.098C22.4841 14.098 22.3441 14.0653 22.2321 14C22.1294 13.9347 22.0174 13.8227 21.8961 13.664L16.1561 6.076H16.4781V13.398C16.4781 13.622 16.4221 13.7947 16.3101 13.916C16.1981 14.0373 16.0348 14.098 15.8201 14.098ZM31.0684 14.126C30.6391 14.126 30.2191 14.0933 29.8084 14.028C29.3977 13.9627 29.0104 13.8647 28.6464 13.734C28.2824 13.594 27.9557 13.426 27.6664 13.23C27.5264 13.1273 27.4284 13.0107 27.3724 12.88C27.3257 12.7493 27.3117 12.6233 27.3304 12.502C27.3584 12.3713 27.4144 12.2593 27.4984 12.166C27.5824 12.0727 27.6851 12.0167 27.8064 11.998C27.9277 11.97 28.0631 12.0073 28.2124 12.11C28.6324 12.3807 29.0757 12.5813 29.5424 12.712C30.0091 12.8333 30.5177 12.894 31.0684 12.894C31.8617 12.894 32.4451 12.754 32.8184 12.474C33.2011 12.1847 33.3924 11.8113 33.3924 11.354C33.3924 10.9807 33.2571 10.6867 32.9864 10.472C32.7157 10.248 32.2631 10.0707 31.6284 9.94L30.1304 9.632C29.2437 9.44533 28.5811 9.13733 28.1424 8.708C27.7131 8.27867 27.4984 7.7 27.4984 6.972C27.4984 6.53333 27.5871 6.132 27.7644 5.768C27.9511 5.404 28.2077 5.09133 28.5344 4.83C28.8611 4.55933 29.2531 4.354 29.7104 4.214C30.1677 4.074 30.6671 4.004 31.2084 4.004C31.7871 4.004 32.3284 4.07867 32.8324 4.228C33.3457 4.37733 33.8031 4.606 34.2044 4.914C34.3257 4.998 34.4051 5.10533 34.4424 5.236C34.4891 5.35733 34.4984 5.47867 34.4704 5.6C34.4517 5.72133 34.4004 5.824 34.3164 5.908C34.2324 5.992 34.1251 6.04333 33.9944 6.062C33.8637 6.07133 33.7191 6.02467 33.5604 5.922C33.1964 5.67933 32.8231 5.50667 32.4404 5.404C32.0671 5.292 31.6517 5.236 31.1944 5.236C30.7371 5.236 30.3357 5.306 29.9904 5.446C29.6544 5.586 29.3931 5.782 29.2064 6.034C29.0291 6.286 28.9404 6.58467 28.9404 6.93C28.9404 7.322 29.0664 7.63467 29.3184 7.868C29.5704 8.10133 29.9904 8.27867 30.5784 8.4L32.0624 8.708C32.9957 8.904 33.6911 9.20733 34.1484 9.618C34.6057 10.0287 34.8344 10.5747 34.8344 11.256C34.8344 11.6947 34.7457 12.0913 34.5684 12.446C34.3911 12.7913 34.1391 13.09 33.8124 13.342C33.4857 13.594 33.0891 13.79 32.6224 13.93C32.1651 14.0607 31.6471 14.126 31.0684 14.126ZM41.6583 14.098C41.425 14.098 41.243 14.0327 41.1123 13.902C40.991 13.7713 40.9303 13.5893 40.9303 13.356V5.348H37.9623C37.7663 5.348 37.6123 5.29667 37.5003 5.194C37.3883 5.082 37.3323 4.928 37.3323 4.732C37.3323 4.536 37.3883 4.38667 37.5003 4.284C37.6123 4.18133 37.7663 4.13 37.9623 4.13H45.3403C45.5456 4.13 45.7043 4.18133 45.8163 4.284C45.9283 4.38667 45.9843 4.536 45.9843 4.732C45.9843 4.928 45.9283 5.082 45.8163 5.194C45.7043 5.29667 45.5456 5.348 45.3403 5.348H42.3723V13.356C42.3723 13.5893 42.3116 13.7713 42.1903 13.902C42.0783 14.0327 41.901 14.098 41.6583 14.098ZM50.0489 14.098C49.8156 14.098 49.6336 14.0327 49.5029 13.902C49.3816 13.7713 49.3209 13.5893 49.3209 13.356V4.872C49.3209 4.62933 49.3862 4.44733 49.5169 4.326C49.6476 4.19533 49.8296 4.13 50.0629 4.13H53.4089C54.4729 4.13 55.2942 4.382 55.8729 4.886C56.4516 5.39 56.7409 6.104 56.7409 7.028C56.7409 7.62533 56.6102 8.13867 56.3489 8.568C56.0876 8.99733 55.7049 9.324 55.2009 9.548C54.7062 9.772 54.1089 9.884 53.4089 9.884L53.5349 9.688H53.8989C54.2722 9.688 54.5942 9.78133 54.8649 9.968C55.1449 10.1547 55.3969 10.4533 55.6209 10.864L56.8249 13.104C56.9182 13.272 56.9602 13.4353 56.9509 13.594C56.9509 13.7433 56.8949 13.8647 56.7829 13.958C56.6802 14.0513 56.5309 14.098 56.3349 14.098C56.1296 14.098 55.9616 14.056 55.8309 13.972C55.7096 13.8787 55.5976 13.7433 55.4949 13.566L54.0249 10.85C53.8289 10.486 53.6049 10.2433 53.3529 10.122C53.1009 9.99133 52.7696 9.926 52.3589 9.926H50.7769V13.356C50.7769 13.5893 50.7162 13.7713 50.5949 13.902C50.4736 14.0327 50.2916 14.098 50.0489 14.098ZM50.7769 8.834H53.1709C53.8802 8.834 54.4169 8.68467 54.7809 8.386C55.1449 8.08733 55.3269 7.644 55.3269 7.056C55.3269 6.47733 55.1449 6.03867 54.7809 5.74C54.4169 5.44133 53.8802 5.292 53.1709 5.292H50.7769V8.834ZM65.0255 14.126C64.3628 14.126 63.7795 14.042 63.2755 13.874C62.7715 13.6967 62.3468 13.4353 62.0015 13.09C61.6655 12.7447 61.4088 12.3153 61.2315 11.802C61.0542 11.2887 60.9655 10.696 60.9655 10.024V4.76C60.9655 4.51733 61.0262 4.33533 61.1475 4.214C61.2782 4.09267 61.4602 4.032 61.6935 4.032C61.9268 4.032 62.1042 4.09267 62.2255 4.214C62.3562 4.33533 62.4215 4.51733 62.4215 4.76V9.996C62.4215 10.9573 62.6408 11.676 63.0795 12.152C63.5275 12.628 64.1762 12.866 65.0255 12.866C65.8842 12.866 66.5328 12.628 66.9715 12.152C67.4102 11.676 67.6295 10.9573 67.6295 9.996V4.76C67.6295 4.51733 67.6902 4.33533 67.8115 4.214C67.9422 4.09267 68.1195 4.032 68.3435 4.032C68.5768 4.032 68.7542 4.09267 68.8755 4.214C68.9968 4.33533 69.0575 4.51733 69.0575 4.76V10.024C69.0575 10.92 68.9035 11.676 68.5955 12.292C68.2968 12.8987 67.8488 13.356 67.2515 13.664C66.6542 13.972 65.9122 14.126 65.0255 14.126ZM74.2431 14.098C74.0284 14.098 73.8604 14.0373 73.7391 13.916C73.6271 13.7947 73.5711 13.6267 73.5711 13.412V4.718C73.5711 4.494 73.6317 4.326 73.7531 4.214C73.8744 4.09267 74.0377 4.032 74.2431 4.032C74.4391 4.032 74.5884 4.06933 74.6911 4.144C74.8031 4.20933 74.9057 4.33067 74.9991 4.508L78.6671 11.354H78.2331L81.8871 4.508C81.9804 4.33067 82.0784 4.20933 82.1811 4.144C82.2837 4.06933 82.4331 4.032 82.6291 4.032C82.8344 4.032 82.9931 4.09267 83.1051 4.214C83.2171 4.326 83.2731 4.494 83.2731 4.718V13.412C83.2731 13.6267 83.2171 13.7947 83.1051 13.916C83.0024 14.0373 82.8437 14.098 82.6291 14.098C82.4144 14.098 82.2511 14.0373 82.1391 13.916C82.0271 13.7947 81.9711 13.6267 81.9711 13.412V6.188H82.2791L79.0311 12.194C78.9564 12.334 78.8771 12.4367 78.7931 12.502C78.7091 12.5673 78.5924 12.6 78.4431 12.6C78.2937 12.6 78.1724 12.5673 78.0791 12.502C77.9857 12.4273 77.9017 12.3247 77.8271 12.194L74.5511 6.174H74.8871V13.412C74.8871 13.6267 74.8311 13.7947 74.7191 13.916C74.6164 14.0373 74.4577 14.098 74.2431 14.098ZM88.6257 14C88.3737 14 88.1777 13.9347 88.0377 13.804C87.907 13.664 87.8417 13.468 87.8417 13.216V4.914C87.8417 4.662 87.907 4.47067 88.0377 4.34C88.1777 4.2 88.3737 4.13 88.6257 4.13H93.7357C93.9317 4.13 94.081 4.18133 94.1837 4.284C94.2863 4.37733 94.3377 4.51733 94.3377 4.704C94.3377 4.9 94.2863 5.04933 94.1837 5.152C94.081 5.25467 93.9317 5.306 93.7357 5.306H89.2417V8.4H93.4277C93.633 8.4 93.7823 8.45133 93.8757 8.554C93.9783 8.65667 94.0297 8.80133 94.0297 8.988C94.0297 9.184 93.9783 9.33333 93.8757 9.436C93.7823 9.52933 93.633 9.576 93.4277 9.576H89.2417V12.824H93.7357C93.9317 12.824 94.081 12.8753 94.1837 12.978C94.2863 13.0807 94.3377 13.2253 94.3377 13.412C94.3377 13.608 94.2863 13.7573 94.1837 13.86C94.081 13.9533 93.9317 14 93.7357 14H88.6257ZM99.0118 14.098C98.7971 14.098 98.6291 14.0373 98.5078 13.916C98.3865 13.7947 98.3258 13.622 98.3258 13.398V4.76C98.3258 4.52667 98.3818 4.34933 98.4938 4.228C98.6151 4.09733 98.7738 4.032 98.9698 4.032C99.1378 4.032 99.2638 4.06467 99.3478 4.13C99.4411 4.186 99.5485 4.29333 99.6698 4.452L105.438 12.054H105.088V4.718C105.088 4.50333 105.144 4.33533 105.256 4.214C105.377 4.09267 105.545 4.032 105.76 4.032C105.984 4.032 106.152 4.09267 106.264 4.214C106.376 4.33533 106.432 4.50333 106.432 4.718V13.412C106.432 13.6267 106.376 13.7947 106.264 13.916C106.161 14.0373 106.021 14.098 105.844 14.098C105.676 14.098 105.536 14.0653 105.424 14C105.321 13.9347 105.209 13.8227 105.088 13.664L99.3478 6.076H99.6698V13.398C99.6698 13.622 99.6138 13.7947 99.5018 13.916C99.3898 14.0373 99.2265 14.098 99.0118 14.098ZM114.106 14.098C113.873 14.098 113.691 14.0327 113.56 13.902C113.439 13.7713 113.378 13.5893 113.378 13.356V5.348H110.41C110.214 5.348 110.06 5.29667 109.948 5.194C109.836 5.082 109.78 4.928 109.78 4.732C109.78 4.536 109.836 4.38667 109.948 4.284C110.06 4.18133 110.214 4.13 110.41 4.13H117.788C117.993 4.13 118.152 4.18133 118.264 4.284C118.376 4.38667 118.432 4.536 118.432 4.732C118.432 4.928 118.376 5.082 118.264 5.194C118.152 5.29667 117.993 5.348 117.788 5.348H114.82V13.356C114.82 13.5893 114.759 13.7713 114.638 13.902C114.526 14.0327 114.349 14.098 114.106 14.098ZM124.717 14.126C124.288 14.126 123.868 14.0933 123.457 14.028C123.046 13.9627 122.659 13.8647 122.295 13.734C121.931 13.594 121.604 13.426 121.315 13.23C121.175 13.1273 121.077 13.0107 121.021 12.88C120.974 12.7493 120.96 12.6233 120.979 12.502C121.007 12.3713 121.063 12.2593 121.147 12.166C121.231 12.0727 121.334 12.0167 121.455 11.998C121.576 11.97 121.712 12.0073 121.861 12.11C122.281 12.3807 122.724 12.5813 123.191 12.712C123.658 12.8333 124.166 12.894 124.717 12.894C125.51 12.894 126.094 12.754 126.467 12.474C126.85 12.1847 127.041 11.8113 127.041 11.354C127.041 10.9807 126.906 10.6867 126.635 10.472C126.364 10.248 125.912 10.0707 125.277 9.94L123.779 9.632C122.892 9.44533 122.23 9.13733 121.791 8.708C121.362 8.27867 121.147 7.7 121.147 6.972C121.147 6.53333 121.236 6.132 121.413 5.768C121.6 5.404 121.856 5.09133 122.183 4.83C122.51 4.55933 122.902 4.354 123.359 4.214C123.816 4.074 124.316 4.004 124.857 4.004C125.436 4.004 125.977 4.07867 126.481 4.228C126.994 4.37733 127.452 4.606 127.853 4.914C127.974 4.998 128.054 5.10533 128.091 5.236C128.138 5.35733 128.147 5.47867 128.119 5.6C128.1 5.72133 128.049 5.824 127.965 5.908C127.881 5.992 127.774 6.04333 127.643 6.062C127.512 6.07133 127.368 6.02467 127.209 5.922C126.845 5.67933 126.472 5.50667 126.089 5.404C125.716 5.292 125.3 5.236 124.843 5.236C124.386 5.236 123.984 5.306 123.639 5.446C123.303 5.586 123.042 5.782 122.855 6.034C122.678 6.286 122.589 6.58467 122.589 6.93C122.589 7.322 122.715 7.63467 122.967 7.868C123.219 8.10133 123.639 8.27867 124.227 8.4L125.711 8.708C126.644 8.904 127.34 9.20733 127.797 9.618C128.254 10.0287 128.483 10.5747 128.483 11.256C128.483 11.6947 128.394 12.0913 128.217 12.446C128.04 12.7913 127.788 13.09 127.461 13.342C127.134 13.594 126.738 13.79 126.271 13.93C125.814 14.0607 125.296 14.126 124.717 14.126ZM141.261 14.126C140.589 14.126 140.006 14.0187 139.511 13.804C139.026 13.5893 138.653 13.2907 138.391 12.908C138.13 12.5253 137.999 12.0773 137.999 11.564C137.999 11.2467 138.041 10.9527 138.125 10.682C138.209 10.4113 138.335 10.1593 138.503 9.926C138.681 9.68333 138.895 9.45467 139.147 9.24C139.409 9.016 139.703 8.80133 140.029 8.596L140.491 8.302L140.295 8.61C139.866 8.15267 139.558 7.742 139.371 7.378C139.194 7.014 139.105 6.64067 139.105 6.258C139.105 5.81 139.208 5.418 139.413 5.082C139.628 4.73667 139.927 4.47067 140.309 4.284C140.701 4.09733 141.154 4.004 141.667 4.004C142.367 4.004 142.932 4.19067 143.361 4.564C143.791 4.928 144.005 5.432 144.005 6.076C144.005 6.412 143.935 6.734 143.795 7.042C143.665 7.35 143.445 7.64867 143.137 7.938C142.829 8.22733 142.409 8.526 141.877 8.834L141.891 8.484L144.411 11.242H144.103C144.225 11.0273 144.332 10.7847 144.425 10.514C144.528 10.2433 144.612 9.94933 144.677 9.632C144.752 9.31467 144.803 8.98333 144.831 8.638C144.859 8.442 144.925 8.29733 145.027 8.204C145.13 8.10133 145.275 8.05 145.461 8.05C145.657 8.05 145.807 8.106 145.909 8.218C146.012 8.33 146.049 8.49333 146.021 8.708C145.984 9.16533 145.914 9.59933 145.811 10.01C145.709 10.4113 145.583 10.7893 145.433 11.144C145.284 11.4893 145.111 11.8113 144.915 12.11L144.901 11.732L146.273 13.174C146.413 13.314 146.479 13.4587 146.469 13.608C146.469 13.748 146.413 13.8647 146.301 13.958C146.199 14.0513 146.054 14.098 145.867 14.098C145.699 14.098 145.559 14.0653 145.447 14C145.345 13.944 145.233 13.8507 145.111 13.72L144.131 12.656H144.467C144.075 13.1133 143.599 13.4727 143.039 13.734C142.489 13.9953 141.896 14.126 141.261 14.126ZM141.331 12.992C141.835 12.992 142.279 12.894 142.661 12.698C143.044 12.4927 143.389 12.194 143.697 11.802L143.655 12.194L140.729 9.072L141.303 9.114L140.883 9.38C140.529 9.61333 140.239 9.83267 140.015 10.038C139.801 10.2433 139.642 10.4627 139.539 10.696C139.446 10.92 139.399 11.172 139.399 11.452C139.399 11.928 139.563 12.306 139.889 12.586C140.225 12.8567 140.706 12.992 141.331 12.992ZM141.667 5.04C141.294 5.04 140.991 5.14733 140.757 5.362C140.533 5.57667 140.421 5.866 140.421 6.23C140.421 6.41667 140.449 6.594 140.505 6.762C140.561 6.92067 140.664 7.10267 140.813 7.308C140.972 7.504 141.182 7.74667 141.443 8.036H141.093C141.523 7.77467 141.859 7.546 142.101 7.35C142.344 7.154 142.521 6.958 142.633 6.762C142.745 6.566 142.801 6.356 142.801 6.132C142.801 5.78667 142.694 5.52067 142.479 5.334C142.274 5.138 142.003 5.04 141.667 5.04ZM159.527 14.098C159.293 14.098 159.111 14.0327 158.981 13.902C158.859 13.7713 158.799 13.5893 158.799 13.356V5.348H155.831C155.635 5.348 155.481 5.29667 155.369 5.194C155.257 5.082 155.201 4.928 155.201 4.732C155.201 4.536 155.257 4.38667 155.369 4.284C155.481 4.18133 155.635 4.13 155.831 4.13H163.209C163.414 4.13 163.573 4.18133 163.685 4.284C163.797 4.38667 163.853 4.536 163.853 4.732C163.853 4.928 163.797 5.082 163.685 5.194C163.573 5.29667 163.414 5.348 163.209 5.348H160.241V13.356C160.241 13.5893 160.18 13.7713 160.059 13.902C159.947 14.0327 159.769 14.098 159.527 14.098ZM167.973 14C167.721 14 167.525 13.9347 167.385 13.804C167.255 13.664 167.189 13.468 167.189 13.216V4.914C167.189 4.662 167.255 4.47067 167.385 4.34C167.525 4.2 167.721 4.13 167.973 4.13H173.083C173.279 4.13 173.429 4.18133 173.531 4.284C173.634 4.37733 173.685 4.51733 173.685 4.704C173.685 4.9 173.634 5.04933 173.531 5.152C173.429 5.25467 173.279 5.306 173.083 5.306H168.589V8.4H172.775C172.981 8.4 173.13 8.45133 173.223 8.554C173.326 8.65667 173.377 8.80133 173.377 8.988C173.377 9.184 173.326 9.33333 173.223 9.436C173.13 9.52933 172.981 9.576 172.775 9.576H168.589V12.824H173.083C173.279 12.824 173.429 12.8753 173.531 12.978C173.634 13.0807 173.685 13.2253 173.685 13.412C173.685 13.608 173.634 13.7573 173.531 13.86C173.429 13.9533 173.279 14 173.083 14H167.973ZM182.07 14.126C181.072 14.126 180.218 13.9207 179.508 13.51C178.799 13.0993 178.253 12.516 177.87 11.76C177.497 10.9947 177.31 10.094 177.31 9.058C177.31 8.28333 177.418 7.588 177.632 6.972C177.847 6.34667 178.155 5.81467 178.556 5.376C178.967 4.928 179.466 4.58733 180.054 4.354C180.652 4.12067 181.324 4.004 182.07 4.004C182.621 4.004 183.148 4.07867 183.652 4.228C184.166 4.37733 184.609 4.592 184.982 4.872C185.141 4.97467 185.244 5.10067 185.29 5.25C185.346 5.39 185.356 5.52533 185.318 5.656C185.29 5.78667 185.23 5.89867 185.136 5.992C185.043 6.076 184.922 6.12267 184.772 6.132C184.632 6.14133 184.478 6.09 184.31 5.978C184.002 5.74467 183.662 5.572 183.288 5.46C182.915 5.348 182.523 5.292 182.112 5.292C181.403 5.292 180.806 5.44133 180.32 5.74C179.835 6.02933 179.466 6.454 179.214 7.014C178.962 7.574 178.836 8.25533 178.836 9.058C178.836 9.86067 178.962 10.5467 179.214 11.116C179.466 11.676 179.835 12.1053 180.32 12.404C180.806 12.6933 181.403 12.838 182.112 12.838C182.523 12.838 182.915 12.782 183.288 12.67C183.671 12.5487 184.03 12.3713 184.366 12.138C184.534 12.0353 184.684 11.9887 184.814 11.998C184.954 12.0073 185.071 12.054 185.164 12.138C185.258 12.222 185.318 12.3293 185.346 12.46C185.384 12.5813 185.379 12.712 185.332 12.852C185.295 12.9827 185.206 13.0947 185.066 13.188C184.684 13.496 184.231 13.7293 183.708 13.888C183.186 14.0467 182.64 14.126 182.07 14.126ZM190.075 14.098C189.842 14.098 189.66 14.0327 189.529 13.902C189.408 13.7713 189.347 13.5893 189.347 13.356V4.774C189.347 4.53133 189.408 4.34933 189.529 4.228C189.66 4.09733 189.842 4.032 190.075 4.032C190.308 4.032 190.486 4.09733 190.607 4.228C190.738 4.34933 190.803 4.53133 190.803 4.774V8.386L196.333 8.386V4.774C196.333 4.53133 196.394 4.34933 196.515 4.228C196.646 4.09733 196.828 4.032 197.061 4.032C197.294 4.032 197.472 4.09733 197.593 4.228C197.714 4.34933 197.775 4.53133 197.775 4.774V13.356C197.775 13.5893 197.714 13.7713 197.593 13.902C197.472 14.0327 197.294 14.098 197.061 14.098C196.828 14.098 196.646 14.0327 196.515 13.902C196.394 13.7713 196.333 13.5893 196.333 13.356V9.604L190.803 9.604V13.356C190.803 13.5893 190.742 13.7713 190.621 13.902C190.5 14.0327 190.318 14.098 190.075 14.098ZM203.006 14.098C202.791 14.098 202.623 14.0373 202.502 13.916C202.38 13.7947 202.32 13.622 202.32 13.398V4.76C202.32 4.52667 202.376 4.34933 202.488 4.228C202.609 4.09733 202.768 4.032 202.964 4.032C203.132 4.032 203.258 4.06467 203.342 4.13C203.435 4.186 203.542 4.29333 203.664 4.452L209.432 12.054H209.082V4.718C209.082 4.50333 209.138 4.33533 209.25 4.214C209.371 4.09267 209.539 4.032 209.754 4.032C209.978 4.032 210.146 4.09267 210.258 4.214C210.37 4.33533 210.426 4.50333 210.426 4.718V13.412C210.426 13.6267 210.37 13.7947 210.258 13.916C210.155 14.0373 210.015 14.098 209.838 14.098C209.67 14.098 209.53 14.0653 209.418 14C209.315 13.9347 209.203 13.8227 209.082 13.664L203.342 6.076H203.664V13.398C203.664 13.622 203.608 13.7947 203.496 13.916C203.384 14.0373 203.22 14.098 203.006 14.098ZM219.248 14.126C218.315 14.126 217.498 13.9207 216.798 13.51C216.107 13.09 215.571 12.502 215.188 11.746C214.815 10.9807 214.628 10.0847 214.628 9.058C214.628 8.28333 214.735 7.588 214.95 6.972C215.165 6.34667 215.473 5.81467 215.874 5.376C216.275 4.928 216.761 4.58733 217.33 4.354C217.899 4.12067 218.539 4.004 219.248 4.004C220.191 4.004 221.007 4.20933 221.698 4.62C222.389 5.03067 222.921 5.614 223.294 6.37C223.677 7.126 223.868 8.01733 223.868 9.044C223.868 9.81867 223.761 10.5187 223.546 11.144C223.331 11.7693 223.019 12.306 222.608 12.754C222.207 13.202 221.721 13.5427 221.152 13.776C220.583 14.0093 219.948 14.126 219.248 14.126ZM219.248 12.866C219.901 12.866 220.457 12.7167 220.914 12.418C221.381 12.1193 221.735 11.6853 221.978 11.116C222.23 10.5467 222.356 9.86067 222.356 9.058C222.356 7.854 222.085 6.92067 221.544 6.258C221.003 5.59533 220.237 5.264 219.248 5.264C218.595 5.264 218.035 5.41333 217.568 5.712C217.111 6.00133 216.756 6.43067 216.504 7C216.261 7.56933 216.14 8.25533 216.14 9.058C216.14 10.2527 216.411 11.186 216.952 11.858C217.503 12.53 218.268 12.866 219.248 12.866ZM228.801 14C228.568 14 228.386 13.9347 228.255 13.804C228.125 13.6733 228.059 13.4913 228.059 13.258V4.816C228.059 4.57333 228.12 4.39133 228.241 4.27C228.372 4.13933 228.554 4.074 228.787 4.074C229.021 4.074 229.198 4.13933 229.319 4.27C229.45 4.39133 229.515 4.57333 229.515 4.816V12.754H233.855C234.061 12.754 234.219 12.81 234.331 12.922C234.443 13.0247 234.499 13.174 234.499 13.37C234.499 13.566 234.443 13.72 234.331 13.832C234.219 13.944 234.061 14 233.855 14H228.801ZM241.788 14.126C240.855 14.126 240.038 13.9207 239.338 13.51C238.648 13.09 238.111 12.502 237.728 11.746C237.355 10.9807 237.168 10.0847 237.168 9.058C237.168 8.28333 237.276 7.588 237.49 6.972C237.705 6.34667 238.013 5.81467 238.414 5.376C238.816 4.928 239.301 4.58733 239.87 4.354C240.44 4.12067 241.079 4.004 241.788 4.004C242.731 4.004 243.548 4.20933 244.238 4.62C244.929 5.03067 245.461 5.614 245.834 6.37C246.217 7.126 246.408 8.01733 246.408 9.044C246.408 9.81867 246.301 10.5187 246.086 11.144C245.872 11.7693 245.559 12.306 245.148 12.754C244.747 13.202 244.262 13.5427 243.692 13.776C243.123 14.0093 242.488 14.126 241.788 14.126ZM241.788 12.866C242.442 12.866 242.997 12.7167 243.454 12.418C243.921 12.1193 244.276 11.6853 244.518 11.116C244.77 10.5467 244.896 9.86067 244.896 9.058C244.896 7.854 244.626 6.92067 244.084 6.258C243.543 5.59533 242.778 5.264 241.788 5.264C241.135 5.264 240.575 5.41333 240.108 5.712C239.651 6.00133 239.296 6.43067 239.044 7C238.802 7.56933 238.68 8.25533 238.68 9.058C238.68 10.2527 238.951 11.186 239.492 11.858C240.043 12.53 240.808 12.866 241.788 12.866ZM255.22 14.126C254.147 14.126 253.241 13.9253 252.504 13.524C251.767 13.1133 251.207 12.53 250.824 11.774C250.451 11.018 250.264 10.1173 250.264 9.072C250.264 8.288 250.371 7.588 250.586 6.972C250.81 6.34667 251.127 5.81467 251.538 5.376C251.958 4.928 252.467 4.58733 253.064 4.354C253.671 4.12067 254.357 4.004 255.122 4.004C255.682 4.004 256.233 4.07867 256.774 4.228C257.315 4.368 257.81 4.60133 258.258 4.928C258.389 5.02133 258.473 5.12867 258.51 5.25C258.547 5.37133 258.547 5.49733 258.51 5.628C258.482 5.74933 258.421 5.85667 258.328 5.95C258.244 6.04333 258.137 6.09933 258.006 6.118C257.885 6.13667 257.749 6.09933 257.6 6.006C257.236 5.754 256.853 5.572 256.452 5.46C256.051 5.33867 255.607 5.278 255.122 5.278C254.394 5.278 253.778 5.42733 253.274 5.726C252.779 6.02467 252.406 6.45867 252.154 7.028C251.902 7.588 251.776 8.26933 251.776 9.072C251.776 10.3133 252.07 11.256 252.658 11.9C253.246 12.544 254.119 12.866 255.276 12.866C255.696 12.866 256.107 12.8287 256.508 12.754C256.919 12.67 257.311 12.5533 257.684 12.404L257.39 13.132V9.87H255.584C255.397 9.87 255.248 9.82333 255.136 9.73C255.033 9.62733 254.982 9.48733 254.982 9.31C254.982 9.13267 255.033 9.002 255.136 8.918C255.248 8.82467 255.397 8.778 255.584 8.778H258.006C258.202 8.778 258.351 8.82933 258.454 8.932C258.557 9.03467 258.608 9.184 258.608 9.38V12.908C258.608 13.076 258.575 13.2207 258.51 13.342C258.454 13.454 258.356 13.538 258.216 13.594C257.815 13.7527 257.343 13.8833 256.802 13.986C256.261 14.0793 255.733 14.126 255.22 14.126ZM263.808 14.098C263.575 14.098 263.393 14.0327 263.262 13.902C263.141 13.7713 263.08 13.5893 263.08 13.356V4.774C263.08 4.53133 263.141 4.34933 263.262 4.228C263.393 4.09733 263.575 4.032 263.808 4.032C264.041 4.032 264.219 4.09733 264.34 4.228C264.471 4.34933 264.536 4.53133 264.536 4.774V13.356C264.536 13.5893 264.475 13.7713 264.354 13.902C264.233 14.0327 264.051 14.098 263.808 14.098ZM269.85 14C269.598 14 269.402 13.9347 269.262 13.804C269.132 13.664 269.066 13.468 269.066 13.216V4.914C269.066 4.662 269.132 4.47067 269.262 4.34C269.402 4.2 269.598 4.13 269.85 4.13H274.96C275.156 4.13 275.306 4.18133 275.408 4.284C275.511 4.37733 275.562 4.51733 275.562 4.704C275.562 4.9 275.511 5.04933 275.408 5.152C275.306 5.25467 275.156 5.306 274.96 5.306H270.466V8.4H274.652C274.858 8.4 275.007 8.45133 275.1 8.554C275.203 8.65667 275.254 8.80133 275.254 8.988C275.254 9.184 275.203 9.33333 275.1 9.436C275.007 9.52933 274.858 9.576 274.652 9.576H270.466V12.824H274.96C275.156 12.824 275.306 12.8753 275.408 12.978C275.511 13.0807 275.562 13.2253 275.562 13.412C275.562 13.608 275.511 13.7573 275.408 13.86C275.306 13.9533 275.156 14 274.96 14H269.85ZM282.704 14.126C282.274 14.126 281.854 14.0933 281.444 14.028C281.033 13.9627 280.646 13.8647 280.282 13.734C279.918 13.594 279.591 13.426 279.302 13.23C279.162 13.1273 279.064 13.0107 279.008 12.88C278.961 12.7493 278.947 12.6233 278.966 12.502C278.994 12.3713 279.05 12.2593 279.134 12.166C279.218 12.0727 279.32 12.0167 279.442 11.998C279.563 11.97 279.698 12.0073 279.848 12.11C280.268 12.3807 280.711 12.5813 281.178 12.712C281.644 12.8333 282.153 12.894 282.704 12.894C283.497 12.894 284.08 12.754 284.454 12.474C284.836 12.1847 285.028 11.8113 285.028 11.354C285.028 10.9807 284.892 10.6867 284.622 10.472C284.351 10.248 283.898 10.0707 283.264 9.94L281.766 9.632C280.879 9.44533 280.216 9.13733 279.778 8.708C279.348 8.27867 279.134 7.7 279.134 6.972C279.134 6.53333 279.222 6.132 279.4 5.768C279.586 5.404 279.843 5.09133 280.17 4.83C280.496 4.55933 280.888 4.354 281.346 4.214C281.803 4.074 282.302 4.004 282.844 4.004C283.422 4.004 283.964 4.07867 284.468 4.228C284.981 4.37733 285.438 4.606 285.84 4.914C285.961 4.998 286.04 5.10533 286.078 5.236C286.124 5.35733 286.134 5.47867 286.106 5.6C286.087 5.72133 286.036 5.824 285.952 5.908C285.868 5.992 285.76 6.04333 285.63 6.062C285.499 6.07133 285.354 6.02467 285.196 5.922C284.832 5.67933 284.458 5.50667 284.076 5.404C283.702 5.292 283.287 5.236 282.83 5.236C282.372 5.236 281.971 5.306 281.626 5.446C281.29 5.586 281.028 5.782 280.842 6.034C280.664 6.286 280.576 6.58467 280.576 6.93C280.576 7.322 280.702 7.63467 280.954 7.868C281.206 8.10133 281.626 8.27867 282.214 8.4L283.698 8.708C284.631 8.904 285.326 9.20733 285.784 9.618C286.241 10.0287 286.47 10.5747 286.47 11.256C286.47 11.6947 286.381 12.0913 286.204 12.446C286.026 12.7913 285.774 13.09 285.448 13.342C285.121 13.594 284.724 13.79 284.258 13.93C283.8 14.0607 283.282 14.126 282.704 14.126Z" fill="#333333"/>
</svg>
