<?xml version="1.0" encoding="utf-8"?>
<!-- Generator: Adobe Illustrator 24.3.0, SVG Export Plug-In . SVG Version: 6.00 Build 0)  -->
<svg version="1.1" id="Glyph" xmlns="http://www.w3.org/2000/svg" xmlns:xlink="http://www.w3.org/1999/xlink" x="0px" y="0px"
	 viewBox="0 0 200 200" style="enable-background:new 0 0 200 200;" xml:space="preserve">
<style type="text/css">
	.st0{fill:#FFFFFF;}
</style>
<g>
	<path class="st0" d="M171.3,0.9h-8.5c-3.7,0-3.7,5.8,0,5.8h8.5c8.8,0,16,7.1,16,15.9v67.2c0,8.8-7.2,15.9-16,15.9h-9.7
		c-0.6,0-1.3,0.2-1.8,0.6l-17.7,13.6v-11.3c0-1.6-1.3-2.9-2.9-2.9h-35.4c-2.9,0-5.7-0.8-8.1-2.2V70.9c0-6.1-3.1-11.5-7.8-14.7V22.6
		c0-8.8,7.2-15.9,16-15.9h40.7c3.7,0,3.7-5.8,0-5.8h-40.7c-12,0-21.8,9.7-21.8,21.7v31.1c-1.3-0.3-2.7-0.5-4.1-0.5H24.7
		c-9.8,0-17.8,8-17.8,17.7v6.3c0,3.7,5.8,3.7,5.8,0v-6.3c0-6.6,5.4-11.9,12-11.9h53.2c6.6,0,12,5.4,12,11.9v33.8c0,0.3,0,0.5,0,0.8
		V124c0,0.4,0,0.7-0.1,1.1h-6c-6.6,0-12.1,4.8-13.2,11c-0.3,0.1-0.5,0.2-0.8,0.4l-13,10v-7.7c0-1.6-1.3-2.9-2.9-2.9H24.7
		c-6.6,0-12-5.4-12-11.9V94.6c0-3.7-5.8-3.7-5.8,0v29.3c0,9.8,8,17.7,17.8,17.7h26.4v10.8c0,2.3,2.8,3.7,4.7,2.3l14.6-11.3v32.7
		c0,7.4,6,13.4,13.5,13.4h17.8v6.8c0,2.3,2.8,3.7,4.7,2.3l11.8-9.1h3.5c7.4,0,13.5-6,13.5-13.4v-5.2c0-3.7-5.8-3.7-5.8,0v5.2
		c0,4.2-3.4,7.6-7.7,7.6h-4.6c-0.6,0-1.3,0.2-1.8,0.6l-7.9,6.1v-3.8c0-1.6-1.3-2.9-2.9-2.9H83.9c-4.2,0-7.7-3.4-7.7-7.6v-37.6
		c0-4.2,3.4-7.6,7.7-7.6h37.7c4.2,0,7.7,3.4,7.7,7.6v14.3c0,3.7,5.8,3.7,5.8,0v-14.3c0-7.4-6-13.4-13.5-13.4H95.7c0-0.4,0-15,0-15
		c2.6,1,5.3,1.6,8.1,1.6h32.5v14.2c0,2.3,2.8,3.7,4.7,2.3l21.6-16.5h8.7c12,0,21.8-9.7,21.8-21.7V22.6
		C193.1,10.6,183.3,0.9,171.3,0.9z"/>
	<path class="st0" d="M145.1,22.4c0.2,0.1,0.3,0.1-0.3-0.1c-0.4-0.1-0.5-0.1-0.4-0.1c-1.4-0.3-0.9-0.2-0.3,0
		c-3.5-0.4-6.7,2.4-6.7,5.9c0,4.2-1.5,8.2-4.3,11.3l-8,9.1c-0.5-0.8-1.4-1.3-2.4-1.3h-15.6c-1.6,0-2.9,1.3-2.9,2.9v35.2
		c0,1.6,1.3,2.9,2.9,2.9h15.6c1.2,0,2.2-0.7,2.6-1.7c3.2,1.9,6.8,3,10.6,3h27.6c4.2,0,7.7-3.7,7.5-7.9c-0.1-1.9,0-26.9,0-27.5
		c0-4.1-3.4-7.5-7.5-7.5h-14.4l0.6-1.4c2.7-6.4,2.3-13.9-1.2-20C147.7,23.9,146.5,22.9,145.1,22.4C145.1,22.4,145.1,22.4,145.1,22.4
		z M119.8,82.3H110V53h9.8V82.3z M142.4,50.9c0.5,0.8,1.4,1.3,2.4,1.3l18.7,0.2c0.9,0,1.7,0.8,1.7,1.7c0,0.6,0,2.1,0,4.1
		c0,11.2-0.1,21.9,0,23.6c0,0.6-0.3,1.1-0.5,1.3c-0.3,0.3-0.8,0.5-1.2,0.5h-27.6c-3.3,0-6.5-1.1-9.1-3.2l-1.2-1V56.7l11.9-13.5
		c3.7-4.2,5.7-9.6,5.7-15.1c0-0.2,0.2-0.2,0.3-0.1c2.6,4.5,2.9,10,0.9,14.8l-2.3,5.4C141.7,49.1,141.8,50.1,142.4,50.9z"/>
	<path class="st0" d="M31.8,101.8c-1.6,0-2.9,1.3-2.9,2.9c0,1.6,1.3,2.9,2.9,2.9h8.6l-1.6,9.7c-0.3,1.6,0.8,3.1,2.4,3.3
		c0.2,0,0.3,0,0.5,0c1.4,0,2.6-1,2.9-2.4l1.8-10.6h7l-1.6,9.7c-0.3,1.6,0.8,3.1,2.4,3.3c0.2,0,0.3,0,0.5,0c1.4,0,2.6-1,2.9-2.4
		l1.8-10.6h11.7c1.6,0,2.9-1.3,2.9-2.9c0-1.6-1.3-2.9-2.9-2.9h-11l1.2-7.1h9.5c1.6,0,2.9-1.3,2.9-2.9c0-1.6-1.3-2.9-2.9-2.9h-8.6
		l1.6-9.7c0.3-1.6-0.8-3.1-2.4-3.3c-1.6-0.3-3.1,0.8-3.3,2.4l-1.8,10.6h-7l1.6-9.7c0.3-1.6-0.8-3.1-2.4-3.3
		c-1.6-0.3-3.1,0.8-3.3,2.4l-1.8,10.6H31.8c-1.6,0-2.9,1.3-2.9,2.9c0,1.6,1.3,2.9,2.9,2.9h10.7l-1.2,7.1H31.8z M48.4,94.7h7
		l-1.2,7.1h-7L48.4,94.7z"/>
	<path class="st0" d="M102.7,145.8c-2.3-1.9-5.5-2.7-8.6-1.9c-4,1-8.1,4.7-8.1,10.9c0,3.8,1.4,7.2,4.3,10.2c2.4,2.5,5.8,4.8,11,7.6
		c0.4,0.2,0.9,0.3,1.4,0.3s0.9-0.1,1.4-0.3c9.2-4.9,15.3-9.8,15.3-17.8c0-6.2-4.2-9.9-8.3-10.9C108,143.3,104.9,144,102.7,145.8z
		 M113.6,154.8c0,4.3-2.9,7.6-10.9,12c-8-4.4-10.9-7.6-10.9-12c0-3.2,1.9-4.8,3.6-5.3c0.3-0.1,0.7-0.1,1-0.1c1.3,0,2.8,0.6,3.7,2.3
		c0.5,1,1.5,1.6,2.6,1.6c1.1,0,2.1-0.7,2.6-1.7c0.9-2,2.9-2.4,4.5-2C111.7,150,113.6,151.6,113.6,154.8z"/>
</g>
</svg>
