<?xml version="1.0" encoding="utf-8"?>
<!-- Generator: Adobe Illustrator 24.3.0, SVG Export Plug-In . SVG Version: 6.00 Build 0)  -->
<svg version="1.1" id="Layer_1" xmlns="http://www.w3.org/2000/svg" xmlns:xlink="http://www.w3.org/1999/xlink" x="0px" y="0px"
	 viewBox="0 0 56 56" style="enable-background:new 0 0 56 56;" xml:space="preserve">
<style type="text/css">
	.st0{fill:#FFFFFF;}
</style>
<g>
	<path class="st0" d="M35.4,34.8c-0.3-0.3-0.8-0.3-1.2,0l-3.7,3.9c-0.3,0.3-0.3,0.8,0,1.1l3.7,3.9c0.2,0.2,0.4,0.3,0.6,0.3
		c0.2,0,0.4-0.1,0.6-0.2c0.3-0.3,0.3-0.8,0-1.2l-3.2-3.4l3.2-3.4C35.8,35.6,35.7,35.1,35.4,34.8z M45.7,38.7L42,34.8
		c-0.3-0.3-0.8-0.3-1.2,0c-0.3,0.3-0.3,0.8,0,1.2l3.2,3.4l-3.2,3.4c-0.3,0.3-0.3,0.9,0,1.2c0.2,0.2,0.4,0.2,0.6,0.2
		c0.2,0,0.4-0.1,0.6-0.3l3.7-3.9C46,39.6,46,39.1,45.7,38.7z M39.3,34.6c-0.4-0.1-0.9,0.2-1,0.6L36.4,43c-0.1,0.4,0.2,0.9,0.6,1
		c0.1,0,0.1,0,0.2,0c0.4,0,0.7-0.3,0.8-0.6l1.9-7.8C40,35.2,39.7,34.7,39.3,34.6z M38.1,27.8c-0.6,0-1.2,0.1-1.8,0.2l0-10.3
		c0.8,0,1.4-0.6,1.4-1.4v-3.6c0-0.8-0.6-1.4-1.4-1.4V5.4c0-2.3-1.8-4.1-4.1-4.1H10.5c-2.3,0-4.1,1.9-4.1,4.1v45.2
		c0,2.3,1.8,4.1,4.1,4.1h21.7c2.2,0,4.1-1.8,4.1-4.1c0.6,0.1,1.2,0.2,1.8,0.2c6.3,0,11.4-5.2,11.4-11.5C49.5,33,44.4,27.8,38.1,27.8
		z M34.7,50.6c0,1.4-1.1,2.5-2.5,2.5H10.5c-1.4,0-2.5-1.1-2.5-2.5V10.3h22.4c0.5,0,0.8-0.4,0.8-0.8c0-0.5-0.4-0.8-0.8-0.8l-22.4,0
		V5.4c0-1.4,1.1-2.5,2.5-2.5h21.7c1.4,0,2.5,1.1,2.5,2.5v22.9c-4.6,1.5-8,5.8-8,11c0,5.1,3.3,9.5,8,11V50.6z M38.1,49.2
		c-5.4,0-9.8-4.4-9.8-9.9c0-5.4,4.4-9.9,9.8-9.9c5.4,0,9.8,4.4,9.8,9.9C47.9,44.8,43.5,49.2,38.1,49.2z M22.1,45.5
		c-1.7,0-3.1,1.4-3.1,3.2c0,1.7,1.4,3.2,3.1,3.2s3.1-1.4,3.1-3.2C25.2,46.9,23.8,45.5,22.1,45.5z M22.1,50.1c-0.8,0-1.5-0.7-1.5-1.5
		s0.7-1.5,1.5-1.5s1.5,0.7,1.5,1.5C23.6,49.5,22.9,50.1,22.1,50.1z M26.8,4.4c-0.7,0-1.3,0.6-1.3,1.3S26.1,7,26.8,7S28,6.4,28,5.7
		S27.5,4.4,26.8,4.4z M26.8,6.1c-0.2,0-0.4-0.2-0.4-0.4s0.2-0.4,0.4-0.4c0.2,0,0.4,0.2,0.4,0.4C27.2,5.9,27,6.1,26.8,6.1z"/>
</g>
</svg>
