<svg width="48" height="48" viewBox="0 0 48 48" fill="none" xmlns="http://www.w3.org/2000/svg">
<g clip-path="url(#clip0_659_1384)">
<path d="M21.2563 24.755L25.7261 20.2852C24.7209 19.6436 23.529 19.27 22.2506 19.27C18.6779 19.27 15.7712 22.1766 15.7712 25.7493C15.7712 29.322 18.6779 32.2286 22.2506 32.2286C25.8233 32.2286 28.7299 29.322 28.7299 25.7493C28.7299 24.471 28.3563 23.279 27.7147 22.2738L23.2449 26.7436L21.2563 24.755Z" fill="#1791F2"/>
<path d="M44.5014 25.7493C44.5014 21.9278 43.5252 18.1908 41.6718 14.8835L36.1313 15.6427C38.2033 18.4806 39.4282 21.9743 39.4282 25.7493C39.4282 35.221 31.7225 42.9269 22.2506 42.9269C12.7788 42.9269 5.07309 35.221 5.07309 25.7493C5.07309 16.2775 12.779 8.57172 22.2507 8.57172C26.0257 8.57172 29.5193 9.79666 32.3573 11.8686L33.1164 6.32819C29.8092 4.47475 26.0722 3.49854 22.2507 3.49854C16.3073 3.49854 10.7197 5.81304 6.51713 10.0157C2.3145 14.2182 0 19.8059 0 25.7493C0 31.6926 2.3145 37.2803 6.51713 41.4828C10.7197 45.6856 16.3073 48 22.2507 48C28.1942 48 33.7818 45.6855 37.9843 41.4828C42.1869 37.2803 44.5014 31.6927 44.5014 25.7493Z" fill="#1791F2"/>
<path d="M22.2506 11.3843C14.3297 11.3843 7.8855 17.8284 7.8855 25.7494C7.8855 33.6704 14.3296 40.1145 22.2506 40.1145C30.1717 40.1145 36.6157 33.6704 36.6157 25.7494C36.6157 22.2942 35.3893 19.1203 33.3493 16.6394L29.7368 20.2519C30.8712 21.7924 31.5426 23.6938 31.5426 25.7494C31.5426 30.8729 27.3742 35.0412 22.2507 35.0412C17.1272 35.0412 12.9589 30.8729 12.9589 25.7494C12.9589 20.6259 17.1272 16.4576 22.2507 16.4576C24.3063 16.4576 26.2076 17.1289 27.7482 18.2633L31.3607 14.6508C28.8797 12.6106 25.7058 11.3843 22.2506 11.3843Z" fill="#1791F2"/>
<path d="M42.2162 0L35.9658 6.25041L35.0474 12.9526L41.7496 12.0341L48 5.78372L43.781 4.21894L42.2162 0Z" fill="#1791F2"/>
</g>
<defs>
<clipPath id="clip0_659_1384">
<rect width="48" height="48" fill="white"/>
</clipPath>
</defs>
</svg>
