<?xml version="1.0" encoding="utf-8"?>
<!-- Generator: Adobe Illustrator 24.3.0, SVG Export Plug-In . SVG Version: 6.00 Build 0)  -->
<svg version="1.1" id="Glyph" xmlns="http://www.w3.org/2000/svg" xmlns:xlink="http://www.w3.org/1999/xlink" x="0px" y="0px"
	 viewBox="0 0 200 200" style="enable-background:new 0 0 200 200;" xml:space="preserve">
<style type="text/css">
	.st0{fill:#FFFFFF;}
</style>
<g>
	<g>
		<path class="st0" d="M196.4,123.8c-3.7-5.5-11.3-7-16.8-3.3l-25.1,16.9L154.4,85l8.7,8.2c1.9,1.7,4.3,2.7,6.8,2.7l0,0
			c2.7,0,5.4-1.2,7.3-3.2c1.8-1.9,2.8-4.5,2.7-7.2s-1.2-5.1-3.2-7L160.1,63c-1.1-1.1-2.9-1-4,0.1s-1,2.9,0.1,4l16.6,15.5
			c0.8,0.8,1.3,1.9,1.4,3c0,1.2-0.4,2.3-1.2,3.1c-0.8,0.9-2,1.4-3.2,1.4l0,0c-1.1,0-2.2-0.4-3-1.2l0,0l-65.6-61.5
			c-1.1-1-2.8-1-3.9,0L31.8,89.2c-0.8,0.8-2,1.2-3.1,1.2c-1.2,0-2.2-0.5-3-1.4c-0.8-0.8-1.2-2-1.2-3.1c0-1.2,0.5-2.2,1.4-3
			l70.5-66.4c1.7-1.6,4.3-1.6,6,0l41.2,38.6c1.1,1.1,2.9,1,4-0.1s1-2.9-0.1-4l-41.4-38.6c-3.8-3.6-9.8-3.6-13.7,0L69.9,33.7v-3.8
			c0-1.2-0.5-2.3-1.3-3.2c-0.8-0.8-2-1.3-3.2-1.3l0,0H49.3c-1.2,0-2.3,0.5-3.2,1.3c-0.8,0.8-1.3,2-1.3,3.2v27.4L21.9,78.8
			c-1.9,1.8-3.1,4.3-3.1,7s0.9,5.2,2.7,7.1c1.8,1.9,4.3,3.1,7,3.1c0.1,0,0.2,0,0.3,0c2.6,0,5-1,6.8-2.7l8.7-8.2v24.7
			c-2.8-0.4-5.7-0.6-8.5-0.6H31v-1.7c0-5.7-4.6-10.3-10.3-10.3h-9c-5.7,0-10.3,4.6-10.3,10.3v44.1c0,1.6,1.3,2.8,2.8,2.8
			s2.8-1.3,2.8-2.8v-44.1c0-2.6,2.1-4.6,4.6-4.6h9c2.6,0,4.6,2.1,4.6,4.6v4.5v57.7v4.5c0,2.6-2.1,4.6-4.6,4.6h-9
			c-2.6,0-4.6-2.1-4.6-4.6v-4.9c0-1.6-1.3-2.8-2.8-2.8s-2.8,1.3-2.8,2.8v4.9c0,5.7,4.6,10.3,10.3,10.3h9c5.7,0,10.3-4.6,10.3-10.3
			v-0.4l41.2,15.6c0.1,0,0.2,0.1,0.2,0.1c1.8,0.5,3.6,0.8,5.3,0.8c1,0,1.9-0.1,2.8-0.2l60.5-8.7l0,0c5.1-0.8,10-3,14-6.3l0.1-0.1
			l39.1-35.2C199,135.7,199.9,128.8,196.4,123.8z M64.2,31v7.9l-13.8,13V31H64.2z M99.3,33.4l49.5,46.3l0.1,61.4l-8,5.3l-8.4-0.5
			l-0.2-2.2c-0.8-7.9-6.6-14.2-14.3-15.7l-0.1-36.6c0-2.8-2.3-5.1-5.1-5.1l0,0L86,86.4c-1.4,0-2.6,0.5-3.6,1.5s-1.5,2.2-1.5,3.6
			v31.9c-5.3-1.2-10.4-3.2-15.1-6c-0.6-0.3-1.2-0.7-1.8-1c-0.2-0.1-0.5-0.2-0.7-0.4c-0.4-0.2-0.7-0.4-1.1-0.6
			c-0.3-0.1-0.6-0.3-0.9-0.4c-0.3-0.1-0.6-0.3-0.9-0.4c-0.3-0.1-0.6-0.3-1-0.4c-0.3-0.1-0.6-0.3-0.9-0.4c-0.3-0.1-0.7-0.3-1-0.4
			s-0.6-0.2-0.9-0.3c-0.3-0.1-0.7-0.2-1-0.4c-0.3-0.1-0.6-0.2-0.9-0.3c-0.3-0.1-0.6-0.2-1-0.3c-0.3-0.1-0.7-0.2-1-0.3
			c-0.3-0.1-0.6-0.2-0.9-0.3c-0.4-0.1-0.8-0.2-1.2-0.3c-0.2,0-0.4-0.1-0.6-0.1V80L99.3,33.4z M112.3,127.3l-23.5-2.7l-2.2-0.3V92
			h25.7V127.3z M190.7,135.5l-39.1,35.1c-3.3,2.6-7.2,4.4-11.3,5.1l-60.5,8.7l0,0l0,0c-1.8,0.3-3.7,0.2-5.7-0.4L31,167.8v-52.9h4.8
			c4.1,0,8.2,0.5,12.1,1.4c0.1,0,0.3,0.1,0.4,0.1c0.5,0.1,1,0.2,1.5,0.4h0.1c0.5,0.1,1,0.3,1.4,0.4c0.1,0,0.2,0.1,0.3,0.1
			c0.5,0.2,1,0.3,1.5,0.5c0.1,0,0.1,0,0.2,0.1c1.1,0.4,2.1,0.8,3.1,1.2c0.1,0,0.1,0,0.2,0.1c0.5,0.2,1,0.4,1.5,0.7l0,0
			c0.5,0.2,1,0.5,1.5,0.7c0.1,0,0.1,0.1,0.2,0.1c0.5,0.2,0.9,0.5,1.4,0.7c0.1,0,0.2,0.1,0.3,0.1c0.5,0.3,0.9,0.5,1.4,0.8
			c6.7,3.9,14,6.5,21.7,7.5c0,0,0,0,0.1,0l31.5,3.6c0.2,0,0.3,0.1,0.5,0.1c4.6,0.9,8.3,4.3,9.5,8.8c0.2,0.7,0.3,1.3,0.4,2l0.1,1.3
			l-59-5.2c-1.5-0.1-2.9,1-3,2.6c-0.1,1.5,1,2.9,2.6,3l62.4,5.5l0,0l0,0l11.8,0.7c0.1,0,0.1,0,0.2,0c0.1,0,0.1,0,0.2,0
			c0.1,0,0.1,0,0.2,0c0.1,0,0.2,0,0.2,0c0.1,0,0.1,0,0.2,0c0.1,0,0.2-0.1,0.3-0.1c0,0,0.1,0,0.1-0.1c0.1-0.1,0.3-0.1,0.4-0.2l10-6.7
			l0,0l29.5-19.8c3-2,7-1.2,9,1.7C193.6,129.7,193.2,133.3,190.7,135.5z"/>
	</g>
</g>
</svg>
