<svg width="54" height="54" viewBox="0 0 54 54" fill="none" xmlns="http://www.w3.org/2000/svg">
<g clip-path="url(#clip0_4541_295)">
<path d="M24.7496 24.7474C25.0377 24.7474 25.3256 24.6372 25.5416 24.4188L34.5414 15.419C34.9802 14.9803 34.9802 14.267 34.5414 13.8282C34.1027 13.3895 33.3894 13.3895 32.9507 13.8282L24.7473 22.0316L21.0438 18.3281C20.6051 17.8894 19.8918 17.8894 19.4531 18.3281C19.0143 18.7668 19.0143 19.4801 19.4531 19.9189L23.9531 24.4188C24.1737 24.6372 24.4617 24.7474 24.7496 24.7474Z" fill="#00283B"/>
<path d="M39.4063 33.6505C43.5103 30.1406 46.1247 24.9364 46.1247 19.1247C46.1247 8.57913 37.5456 0 27 0C16.4544 0 7.87517 8.57913 7.87517 19.1247C7.87517 24.9364 10.4874 30.1383 14.5913 33.6505L7.93824 52.5008C7.78753 52.9306 7.91124 53.4142 8.25549 53.718C8.46695 53.9002 8.73252 53.9969 9.00019 53.9969C9.17115 53.9969 9.34444 53.9564 9.50422 53.8777L17.8606 49.6995L22.923 53.7516C23.229 53.9946 23.634 54.0599 24.0008 53.9339C24.3675 53.8056 24.6398 53.4973 24.7253 53.1171L26.28 46.1242L29.3377 53.3129C29.4749 53.6369 29.7562 53.8777 30.0982 53.9631C30.4379 54.0554 30.8024 53.9698 31.0769 53.7516L36.1394 49.6995L44.4957 53.8777C44.6555 53.9564 44.8287 53.9969 44.9998 53.9969C45.2675 53.9969 45.533 53.9002 45.7423 53.7157C46.0865 53.4119 46.2125 52.9281 46.0595 52.4985L39.4063 33.6505ZM10.1252 19.1225C10.1252 9.81658 17.6941 2.24772 27 2.24772C36.3059 2.24772 43.8747 9.81658 43.8747 19.1225C43.8747 28.4284 36.3059 35.9973 27 35.9973C17.6941 35.9973 10.1252 28.4284 10.1252 19.1225ZM22.9185 50.8673L18.702 47.4946C18.3578 47.22 17.8875 47.1728 17.496 47.3663L10.9869 50.6198L16.4746 35.0725C18.3488 36.3145 20.457 37.2257 22.7137 37.7455L24.7634 42.5627L22.9185 50.8673ZM36.5015 47.3663C36.11 47.1728 35.6398 47.22 35.2955 47.4946L30.8293 51.0698L25.3349 38.1618C25.8838 38.209 26.4373 38.245 26.9999 38.245C30.8878 38.245 34.5036 37.0727 37.5252 35.0725L43.0107 50.6176L36.5015 47.3663Z" fill="#00283B"/>
<path d="M26.9998 31.4973C33.824 31.4973 39.3746 25.9443 39.3746 19.1225C39.3746 12.3007 33.824 6.74771 26.9998 6.74771C20.1756 6.74771 14.625 12.3007 14.625 19.1225C14.625 25.9443 20.1756 31.4973 26.9998 31.4973ZM26.9998 8.99764C32.582 8.99764 37.1247 13.5403 37.1247 19.1225C37.1247 24.7047 32.582 29.2474 26.9998 29.2474C21.4176 29.2474 16.8749 24.7047 16.8749 19.1225C16.8749 13.5403 21.4176 8.99764 26.9998 8.99764Z" fill="#00283B"/>
</g>
<defs>
<clipPath id="clip0_4541_295">
<rect width="54" height="54" fill="white"/>
</clipPath>
</defs>
</svg>
