<?xml version="1.0" encoding="UTF-8"?> <svg xmlns="http://www.w3.org/2000/svg" width="185" height="50" viewBox="0 0 185 50" fill="none"><g clip-path="url(#clip0_6134_53494)"><mask id="mask0_6134_53494" style="mask-type:luminance" maskUnits="userSpaceOnUse" x="0" y="0" width="186" height="50"><path d="M0 50H185.007V0H0V50Z" fill="white"></path></mask><g mask="url(#mask0_6134_53494)"><path d="M39.1908 8.53711C39.1901 8.44964 39.1598 8.36495 39.1047 8.29669C39.0497 8.22843 38.973 8.18058 38.8872 8.16085C38.8014 8.14112 38.7114 8.15067 38.6318 8.18794C38.5521 8.22522 38.4874 8.28806 38.4481 8.36633C33.5392 19.5714 17.719 20.9632 13.5461 8.75913C10.6231 0.220004 -5.79025 4.39905 2.14648 17.4383C12.0502 33.707 37.8824 28.1105 39.1908 8.53028" fill="#62A600"></path><path d="M22.5729 16.0997C22.5693 11.0352 23.267 5.99431 24.6464 1.11868C24.7009 0.931599 24.6906 0.731766 24.6171 0.55122C24.5436 0.370675 24.4112 0.219876 24.2411 0.123C24.071 0.0261236 23.8731 -0.0112189 23.6791 0.0169645C23.4851 0.045148 23.3062 0.137223 23.1712 0.278424C19.3032 4.33049 16.4581 9.23621 14.8698 14.5926C13.2815 19.949 12.9951 25.6033 14.0343 31.091C14.9443 36.0048 17.0576 40.6208 20.1881 44.5316C26.426 52.046 34.4075 52.9853 27.9356 39.8368C24.3502 32.4331 22.5159 24.3152 22.5729 16.0997Z" fill="#42256B"></path><path d="M34.2019 7.58643C34.2019 8.53761 33.8215 9.44984 33.1444 10.1224C32.4672 10.795 31.5488 11.1729 30.5912 11.1729C29.6336 11.1729 28.7152 10.795 28.038 10.1224C27.3609 9.44984 26.9805 8.53761 26.9805 7.58643C26.9805 6.63525 27.3609 5.72303 28.038 5.05044C28.7152 4.37786 29.6336 4 30.5912 4C31.5488 4 32.4672 4.37786 33.1444 5.05044C33.8215 5.72303 34.2019 6.63525 34.2019 7.58643Z" fill="#42256B"></path><path d="M44.6769 44.1875C44.2568 43.9646 43.9027 43.6364 43.6496 43.2356C43.3966 42.8347 43.2534 42.3752 43.2344 41.9024C43.2344 41.3589 43.4518 40.8376 43.8387 40.4533C44.2256 40.069 44.7504 39.853 45.2976 39.853C46.0319 39.9007 46.7301 40.1863 47.2853 40.666C48.8062 41.7198 50.6149 42.287 52.4692 42.2918C54.9641 42.2918 56.6405 40.9375 56.6405 38.9616C56.6405 36.7158 54.3021 35.9028 51.5339 34.7022C47.2062 32.921 44.3228 30.986 44.3228 26.8462C44.3228 22.5101 47.5896 19.4121 52.9369 19.4121C54.9174 19.3324 56.8868 19.7432 58.6677 20.6076C59.1428 20.7687 59.561 21.0626 59.8721 21.454C60.1832 21.8454 60.3739 22.3176 60.4214 22.8141C60.4337 23.0737 60.3937 23.3332 60.304 23.5774C60.2142 23.8216 60.0764 24.0455 59.8986 24.2363C59.7208 24.427 59.5066 24.5807 59.2684 24.6884C59.0302 24.7961 58.7728 24.8556 58.5112 24.8635C57.9436 24.8247 57.3884 24.6804 56.8743 24.4382C55.6509 23.8772 54.3237 23.5742 52.9765 23.5484C50.3647 23.5484 48.9617 24.942 48.9617 26.5679C48.9617 28.8529 51.6113 29.7034 54.3795 30.8648C58.0435 32.3745 61.2794 34.2343 61.2794 38.6866C61.2794 43.6393 57.2646 46.4299 52.2354 46.4299C49.5428 46.4601 46.9044 45.6769 44.6701 44.1841" fill="#42256B"></path><path d="M64.4339 37.4517C64.3963 36.2361 64.6116 35.0259 65.0666 33.8969C65.5215 32.7678 66.2061 31.7442 67.0777 30.89C67.9492 30.0359 68.9889 29.3697 70.1316 28.933C71.2743 28.4963 72.4955 28.2987 73.7186 28.3524C75.4244 28.3149 77.104 28.7725 78.5518 29.6691C78.8678 29.8533 79.1329 30.1125 79.3234 30.4233C79.5139 30.7341 79.6239 31.087 79.6437 31.4504C79.6559 31.7066 79.6152 31.9626 79.524 32.2026C79.4328 32.4426 79.2931 32.6616 79.1135 32.8459C78.9339 33.0302 78.7181 33.1761 78.4796 33.2744C78.2411 33.3728 77.9848 33.4216 77.7265 33.4178C77.1975 33.3997 76.6789 33.2675 76.2066 33.0301C75.4685 32.66 74.6554 32.4614 73.8287 32.4494C73.1705 32.434 72.5163 32.5541 71.9073 32.8022C71.2982 33.0503 70.7474 33.4209 70.2896 33.8909C69.8319 34.3608 69.4771 34.9198 69.2475 35.5326C69.018 36.1454 68.9187 36.7988 68.9559 37.4517C68.9236 38.1124 69.0302 38.7727 69.2688 39.3903C69.5074 40.0079 69.8728 40.5695 70.3419 41.0392C70.8109 41.5089 71.3732 41.8765 71.993 42.1186C72.6129 42.3607 73.2766 42.472 73.9421 42.4453C74.8326 42.4628 75.7106 42.2346 76.4783 41.7861C76.8796 41.5923 77.3182 41.4863 77.7644 41.4753C78.0133 41.4572 78.2633 41.4913 78.4981 41.5754C78.7329 41.6594 78.9474 41.7916 79.1275 41.9632C79.3076 42.1349 79.4494 42.3422 79.5436 42.5718C79.6379 42.8013 79.6825 43.048 79.6746 43.2958C79.6614 43.7302 79.5218 44.1514 79.2729 44.5087C79.0239 44.866 78.6762 45.1441 78.2716 45.3094C76.8769 46.1171 75.2864 46.5305 73.6722 46.5048C72.4562 46.5545 71.2428 46.3552 70.1076 45.9194C68.9724 45.4836 67.9395 44.8206 67.0731 43.9716C66.2067 43.1226 65.5253 42.1057 65.0713 40.9841C64.6173 39.8624 64.4003 38.6601 64.4339 37.4517Z" fill="#42256B"></path><path d="M83.2658 22.5504C83.262 22.2203 83.3252 21.8929 83.4517 21.5877C83.5781 21.2825 83.7652 21.0057 84.0018 20.7739C84.2384 20.5421 84.5195 20.3601 84.8285 20.2386C85.1375 20.1172 85.468 20.0589 85.8002 20.0672C86.1313 20.0624 86.4602 20.1232 86.7675 20.2459C87.0748 20.3686 87.3544 20.5508 87.5901 20.7819C87.8258 21.013 88.0129 21.2884 88.1404 21.592C88.2679 21.8956 88.3333 22.2214 88.3328 22.5504C88.332 22.8785 88.2655 23.2031 88.1374 23.5056C88.0093 23.808 87.822 24.0822 87.5865 24.3122C87.3509 24.5422 87.0717 24.7235 86.7651 24.8456C86.4584 24.9676 86.1305 25.028 85.8002 25.0233C85.4689 25.0315 85.1393 24.9735 84.831 24.8528C84.5227 24.732 84.2419 24.5508 84.0055 24.3201C83.7691 24.0894 83.5818 23.8139 83.4547 23.5099C83.3276 23.2058 83.2634 22.8795 83.2658 22.5504ZM83.577 44.0348V30.8316C83.5768 30.5416 83.6341 30.2543 83.7458 29.9863C83.8574 29.7183 84.0212 29.4748 84.2276 29.2697C84.4341 29.0646 84.6793 28.9019 84.9491 28.791C85.219 28.6801 85.5082 28.6232 85.8002 28.6234C86.0929 28.6202 86.3834 28.6751 86.6545 28.785C86.9256 28.8948 87.1718 29.0574 87.3788 29.2631C87.5857 29.4688 87.7492 29.7136 87.8596 29.9829C87.97 30.2523 88.0251 30.5408 88.0216 30.8316V44.0348C88.0313 44.63 87.8028 45.2047 87.3863 45.6328C86.9699 46.0609 86.3994 46.3074 85.8002 46.3182C85.2028 46.3012 84.6358 46.0529 84.2204 45.6262C83.805 45.1995 83.5741 44.6284 83.577 44.0348Z" fill="#42256B"></path><path d="M108.954 36.0578C108.996 36.6438 108.815 37.2243 108.446 37.6837C108.018 38.1875 107.354 38.3036 106.342 38.3036H96.5154C96.7121 39.5964 97.399 40.7656 98.4353 41.5717C99.4716 42.3778 100.779 42.76 102.09 42.6398C103.034 42.621 103.969 42.4509 104.858 42.136C105.313 41.9886 105.784 41.8974 106.261 41.8645C106.495 41.8646 106.726 41.9111 106.941 42.0012C107.156 42.0913 107.351 42.2231 107.515 42.389C107.678 42.5549 107.806 42.7515 107.892 42.9673C107.978 43.1831 108.02 43.4137 108.015 43.6457C108.006 44.0416 107.879 44.426 107.65 44.7501C107.421 45.0743 107.1 45.3235 106.729 45.4663C105.164 46.1749 103.462 46.5318 101.742 46.5114C100.498 46.5929 99.2505 46.4166 98.0786 45.9938C96.9066 45.571 95.8358 44.9108 94.9343 44.0553C94.0327 43.1998 93.3199 42.1675 92.8412 41.0239C92.3625 39.8803 92.1282 38.6504 92.1533 37.4122C92.0997 36.2297 92.2915 35.0488 92.7166 33.943C93.1417 32.8372 93.7911 31.83 94.6245 30.9839C95.458 30.1379 96.4576 29.471 97.5614 29.0247C98.6651 28.5784 99.8495 28.3623 101.041 28.3897C102.075 28.3457 103.108 28.5125 104.075 28.8797C105.042 29.247 105.923 29.8069 106.664 30.5251C107.405 31.2433 107.99 32.1045 108.383 33.0557C108.776 34.0069 108.969 35.028 108.95 36.0561M104.975 35.4755C104.964 34.9707 104.85 34.4733 104.64 34.0135C104.43 33.5538 104.128 33.1412 103.753 32.8008C103.378 32.4605 102.936 32.1995 102.456 32.0336C101.976 31.8678 101.467 31.8006 100.96 31.8361C99.9144 31.8074 98.8948 32.1628 98.0966 32.8343C97.2984 33.5058 96.7776 34.4463 96.6341 35.4755H104.975Z" fill="#42256B"></path><path d="M128.988 34.6252V44.0336C128.993 44.6213 128.768 45.188 128.361 45.6142C127.954 46.0405 127.396 46.293 126.805 46.3187C126.203 46.3028 125.631 46.0557 125.21 45.6295C124.788 45.2033 124.549 44.6312 124.544 44.0336V35.5543C124.6 35.1236 124.559 34.686 124.426 34.2726C124.292 33.8591 124.069 33.48 123.771 33.162C123.473 32.8441 123.109 32.5953 122.703 32.4331C122.298 32.271 121.861 32.1996 121.425 32.224C120.567 32.2578 119.737 32.5296 119.027 33.0087C118.317 33.4878 117.757 34.1549 117.41 34.9343V44.0336C117.413 44.6275 117.182 45.1991 116.767 45.6261C116.352 46.0532 115.784 46.3017 115.187 46.3187C114.587 46.3079 114.016 46.0612 113.6 45.6327C113.183 45.2043 112.955 44.6291 112.965 44.0336V30.8304C112.962 30.5398 113.017 30.2514 113.128 29.9822C113.238 29.7131 113.402 29.4686 113.609 29.263C113.816 29.0575 114.062 28.8951 114.333 28.7853C114.604 28.6756 114.894 28.6207 115.187 28.6239C115.776 28.6239 116.341 28.8564 116.757 29.2702C117.174 29.684 117.408 30.2452 117.408 30.8304V31.0627C118.055 30.2364 118.882 29.5667 119.828 29.104C120.773 28.6414 121.812 28.3978 122.865 28.3916C123.692 28.358 124.516 28.4974 125.284 28.8008C126.052 29.1043 126.747 29.565 127.325 30.153C127.902 30.741 128.348 31.4431 128.634 32.2136C128.92 32.9841 129.04 33.8058 128.985 34.6252" fill="#42256B"></path><path d="M134.288 45.1939C133.905 45.0517 133.574 44.7985 133.338 44.4672C133.101 44.1359 132.971 43.7418 132.963 43.3358C132.953 43.1054 132.99 42.8754 133.072 42.6597C133.153 42.4439 133.279 42.2469 133.439 42.0804C133.6 41.914 133.793 41.7816 134.006 41.6912C134.22 41.6008 134.45 41.5543 134.682 41.5545C135.373 41.632 136.046 41.8285 136.67 42.1352C137.714 42.5957 138.839 42.8459 139.981 42.8713C141.931 42.8713 142.787 42.2138 142.787 41.3223C142.787 40.2378 141.461 39.7733 139.004 38.9996C136.002 38.0706 133.275 36.9093 133.275 33.6183C133.275 30.6364 135.614 28.3906 140.019 28.3906C141.659 28.3944 143.284 28.6966 144.814 29.2821C145.244 29.3788 145.629 29.6132 145.911 29.949C146.193 30.2848 146.355 30.7034 146.374 31.1402C146.395 31.3768 146.366 31.6151 146.289 31.84C146.212 32.0649 146.089 32.2714 145.927 32.4462C145.765 32.6211 145.568 32.7605 145.349 32.8556C145.13 32.9506 144.894 32.9993 144.654 32.9983C144.039 32.9209 143.436 32.7647 142.861 32.5338C141.931 32.2259 140.961 32.0562 139.981 32.03C138.262 32.03 137.486 32.6499 137.486 33.5004C137.486 34.5456 138.578 34.9333 141.501 35.8624C144.503 36.8307 146.958 37.9527 146.958 41.09C146.958 44.2273 144.501 46.5107 140.096 46.5107C138.083 46.527 136.095 46.0761 134.288 45.1939Z" fill="#42256B"></path><path d="M166.914 30.8388V44.0351C166.917 44.3259 166.862 44.6143 166.752 44.8836C166.641 45.1528 166.478 45.3975 166.271 45.603C166.064 45.8086 165.818 45.971 165.546 46.0807C165.275 46.1904 164.985 46.2451 164.692 46.2417C164.103 46.2417 163.538 46.0092 163.121 45.5954C162.705 45.1816 162.471 44.6203 162.471 44.0351V43.8029C161.824 44.6295 160.996 45.2994 160.051 45.7621C159.105 46.2248 158.066 46.4682 157.012 46.4739C156.185 46.5077 155.36 46.3681 154.591 46.0641C153.822 45.7601 153.127 45.2986 152.549 44.7097C151.972 44.1208 151.526 43.4177 151.24 42.6461C150.955 41.8746 150.836 41.0519 150.892 40.2318V30.8388C150.886 30.2502 151.109 29.682 151.517 29.2544C151.924 28.8267 152.482 28.573 153.074 28.5469C153.678 28.5606 154.253 28.8077 154.677 29.2356C155.101 29.6635 155.34 30.2386 155.344 30.8388V39.3113C155.288 39.7419 155.328 40.1795 155.462 40.593C155.595 41.0064 155.819 41.3856 156.117 41.7035C156.414 42.0214 156.779 42.2703 157.184 42.4324C157.59 42.5946 158.026 42.666 158.463 42.6416C159.319 42.6061 160.148 42.3332 160.856 41.8539C161.564 41.3746 162.123 40.708 162.469 39.9295V30.8388C162.466 30.2452 162.696 29.6739 163.111 29.2469C163.526 28.8199 164.093 28.5711 164.691 28.5537C165.29 28.564 165.862 28.8106 166.278 29.2391C166.695 29.6676 166.924 30.243 166.914 30.8388Z" fill="#42256B"></path><path d="M172.335 45.1939C171.952 45.0517 171.621 44.7985 171.385 44.4672C171.148 44.1359 171.018 43.7418 171.009 43.3358C170.999 43.1054 171.037 42.8754 171.118 42.6597C171.2 42.4439 171.325 42.2469 171.486 42.0804C171.647 41.914 171.84 41.7816 172.053 41.6912C172.267 41.6008 172.497 41.5543 172.729 41.5545C173.42 41.6321 174.093 41.8286 174.716 42.1352C175.76 42.5958 176.886 42.8459 178.028 42.8713C179.976 42.8713 180.834 42.2138 180.834 41.3223C180.834 40.2378 179.508 39.7733 177.051 38.9996C174.049 38.0706 171.322 36.9093 171.322 33.6183C171.322 30.6364 173.661 28.3906 178.066 28.3906C179.706 28.3945 181.331 28.6967 182.861 29.2821C183.29 29.3788 183.676 29.6132 183.958 29.949C184.239 30.2848 184.402 30.7034 184.421 31.1402C184.442 31.3768 184.413 31.6151 184.336 31.84C184.259 32.0649 184.136 32.2714 183.974 32.4462C183.812 32.6211 183.615 32.7605 183.396 32.8556C183.177 32.9506 182.94 32.9993 182.701 32.9983C182.086 32.9209 181.483 32.7648 180.908 32.5338C179.978 32.226 179.008 32.0562 178.028 32.03C176.309 32.03 175.533 32.6499 175.533 33.5004C175.533 34.5456 176.625 34.9333 179.548 35.8624C182.55 36.8307 185.005 37.9527 185.005 41.09C185.005 44.2273 182.548 46.5107 178.143 46.5107C176.13 46.527 174.141 46.0761 172.335 45.1939Z" fill="#42256B"></path></g></g><defs><clipPath id="clip0_6134_53494"><rect width="185" height="50" fill="white"></rect></clipPath></defs></svg> 