<?xml version="1.0" encoding="utf-8"?>
<!-- Generator: Adobe Illustrator 24.3.0, SVG Export Plug-In . SVG Version: 6.00 Build 0)  -->
<svg version="1.1" id="Layer_1" xmlns="http://www.w3.org/2000/svg" xmlns:xlink="http://www.w3.org/1999/xlink" x="0px" y="0px"
	 viewBox="0 0 56 56" style="enable-background:new 0 0 56 56;" xml:space="preserve">
<style type="text/css">
	.st0{fill:#FFFFFF;}
</style>
<g>
	<path class="st0" d="M0.9,50.8c0.3-1.1,1-1.9,1.8-2.7c2.5-2.5,5-5,7.5-7.5c0.1-0.1,0.3-0.2,0.4-0.3C7.2,34.1,7.1,28,11.2,22.2
		c3.8-5.4,9.3-7.4,15.8-6.7c0.1-0.4,0.1-0.7-0.3-1c-1.5-1.2-3-2.5-4.5-3.7c-0.4-0.3-0.6-0.7-0.6-1.2c0-2.5,0-5,0-7.4
		c0-0.5,0.2-1,0.6-1.2c0.2,0,0.4,0,0.6,0c0.4,0.3,0.6,0.7,0.6,1.3c0,1.8,0.1,3.6,0,5.3c-0.1,1.5,0.3,2.6,1.6,3.3
		c0.1,0.1,0.2,0.2,0.3,0.2c0.6,0.5,1.2,1,1.8,1.5c0.5-1.7,0.8-2,2.7-2.6c0.3-2.6,0.6-3.1,2.7-3.6c0.4-2.3,1.7-3.6,3.6-3.5
		c2.3,0,3.5,1.7,3.7,3.6c2.1,0.3,2.8,1.6,2.7,3.6c1.6,0.2,2.4,1,2.7,2.6c1.1-0.9,2.2-1.8,3.2-2.7c0.3-0.2,0.4-0.4,0.4-0.8
		c0-2.3,0-4.6,0-6.9c0-0.6,0.1-1,0.6-1.3c0.2,0,0.4,0,0.6,0c0.4,0.3,0.6,0.7,0.6,1.3c0,2.5,0,5,0,7.4c0,0.5-0.2,0.9-0.6,1.2
		c-1.5,1.2-3,2.5-4.5,3.7c-0.2,0.1-0.4,0.3-0.4,0.5c0,0.7,0,1.4,0,2.1c0.3,0,0.5,0,0.7,0c2.7,0,5.3,0,8,0c0.5,0,1,0.1,1.3,0.6
		c0,0.2,0,0.4,0,0.6c-0.3,0.5-0.7,0.6-1.3,0.6c-2.6,0-5.3,0-7.9,0c-0.2,0-0.4,0-0.7,0c0,0.7,0,1.4,0,2.1c0,0.1,0.2,0.3,0.3,0.4
		c1.5,1.3,3,2.6,4.6,3.8c0.4,0.3,0.5,0.6,0.5,1.1c0,2.6,0,5.1,0,7.7c0,0.4-0.1,0.8-0.5,1c-0.6,0.3-1.3-0.1-1.3-0.9
		c0-1.1,0-2.1,0-3.2c0-1.3,0-2.7,0-4c0-0.2,0-0.4-0.2-0.5c-1.1-0.9-2.2-1.9-3.4-2.8c0,0-0.1,0-0.1,0c-0.2,1.5-0.7,2.9-1.6,4.1
		c-0.7,0.9-1.6,1.6-2.4,2.3c-0.3,0.3-0.5,0.4-0.4,0.8c0.3,7-3.8,13.3-10.3,15.8c-4.9,1.8-9.6,1.4-14.1-1.2c-0.1-0.1-0.2-0.1-0.3-0.2
		c0,0-0.1,0-0.2-0.1c-0.1,0.1-0.2,0.3-0.3,0.4c-2.5,2.5-5,5-7.5,7.5c-0.8,0.8-1.6,1.5-2.7,1.8c-0.4,0-0.8,0-1.3,0
		c-0.8-0.3-1.6-0.6-2.1-1.3c-0.3-0.5-0.6-1.1-0.8-1.6C0.9,51.7,0.9,51.3,0.9,50.8z M24.4,46.1c7.9,0,14.4-6.4,14.4-14.4
		c0.1-8-6.4-14.4-14.4-14.5c-7.9,0-14.4,6.4-14.5,14.4C9.9,39.5,16.4,46,24.4,46.1z M43.3,15.4c-2,0-4,0-6,0c-0.3,0-0.3,0.2-0.3,0.4
		c0,1.4,0,2.7,0,4.1c0,0.9,0.2,1.7,0.7,2.5c1.3,1.7,2.1,3.8,2.6,5.9c0.1-0.1,0.3-0.2,0.4-0.2c1.2-1,2.1-2.3,2.4-3.9
		c0.2-1.2,0.2-2.5,0.2-3.7C43.4,18.9,43.3,17.2,43.3,15.4z M14.1,44.4c-0.9-0.9-1.7-1.7-2.6-2.6c0.1-0.1,0.1,0,0,0
		c-2.8,2.8-5.5,5.5-8.2,8.3c-0.2,0.2-0.4,0.6-0.5,1c-0.2,0.8,0.2,1.5,0.9,1.9c0.7,0.4,1.5,0.3,2.1-0.3c1.4-1.3,2.7-2.7,4-4
		C11.4,47.2,12.8,45.8,14.1,44.4z M43.3,13.5c0.1-1.5-0.1-1.8-1.5-1.8c-3.8,0-7.6,0-11.5,0c-0.2,0-0.4,0-0.5,0
		c-0.5,0.1-0.8,0.3-0.8,0.9c0,0.3,0,0.6,0,0.9C33.7,13.5,38.5,13.5,43.3,13.5z M40.6,9.9c0-0.3,0-0.6,0-0.8c0-0.6-0.4-1-1-1
		c-2.4,0-4.7,0-7.1,0c-0.5,0-0.9,0.3-1,0.8c0,0.3,0,0.7,0,1C34.6,9.9,37.6,9.9,40.6,9.9z M29,15.4c-0.1,0.4,0,0.6,0.4,0.8
		c1.1,0.4,2.2,0.9,3.2,1.4c0.9,0.5,1.7,1.2,2.6,1.8c0-1.3,0-2.6,0-4C33.1,15.4,31,15.4,29,15.4z M37.9,6.3C37.8,5.2,37,4.5,36,4.5
		c-1,0.1-1.7,0.8-1.7,1.8c0.1,0,0.3,0,0.4,0C35.8,6.3,36.8,6.3,37.9,6.3z"/>
	<path class="st0" d="M24.4,44.2c-6.9,0-12.6-5.7-12.7-12.6c0-6.9,5.6-12.6,12.6-12.6c7,0,12.6,5.6,12.7,12.6
		C37,38.6,31.4,44.2,24.4,44.2z M27.1,23.6c-1.2,1-2.3,1.9-3.4,2.9c-0.1,0.1-0.2,0.4-0.2,0.6c0,1.3,0,2.6,0,3.9c0,1.1,0,2.3,0,3.4
		c0,0.7-0.6,1.1-1.2,0.9c-0.5-0.2-0.6-0.6-0.6-1.1c0-2.6,0-5.1,0-7.7c0-0.5,0.2-0.8,0.5-1.1c1.5-1.2,3-2.5,4.5-3.8
		c0.1-0.1,0.3-0.2,0.4-0.4c-3.7-1.1-8.6,0-11.5,4.1c-2.8,3.9-2.7,9.2,0.3,13c3,3.8,8.1,5.1,12.6,3.3c4-1.7,7.1-6.2,6.6-10.1
		c-2.1-0.3-3.9-1.1-5.4-2.6C28.3,27.5,27.4,25.7,27.1,23.6z M35,29.7c-0.2-2.9-3.4-7.1-6-7.8C28.5,25.5,31.3,29.2,35,29.7z"/>
</g>
</svg>
