<svg width="54" height="54" viewBox="0 0 54 54" fill="none" xmlns="http://www.w3.org/2000/svg">
<g id="flexibility4 ">
<path id="Vector" d="M9.71933 11.3588C10.2785 10.7274 10.8728 10.1298 11.4993 9.56911C11.7714 9.33143 12.0436 9.09653 12.3158 8.86723L12.7567 8.50651C12.6669 8.57641 12.92 8.37228 12.7567 8.50651L12.8628 8.42262L13.1595 8.19332C13.8998 7.63405 14.6645 7.11114 15.4538 6.62457C19.4029 4.19456 23.9127 2.93901 28.5775 3.33329C28.8252 3.35286 29.0702 3.37803 29.3151 3.40879C29.6363 3.44794 29.6118 3.44235 29.9193 3.49268C30.4455 3.57284 30.9662 3.67258 31.4815 3.79189C32.5039 4.02529 33.5111 4.32415 34.4971 4.68671C35.4624 5.03543 36.4036 5.45117 37.314 5.93108C38.2902 6.43734 39.2354 7.00418 40.1445 7.62846C41.9438 8.86511 43.5803 10.3351 45.0135 12.0019C45.7248 12.8198 46.377 13.6899 46.9649 14.6053C47.581 15.5678 48.1294 16.5743 48.6061 17.617C50.5535 21.9483 51.1678 26.7871 50.367 31.4868C49.7929 34.8705 48.5216 38.0892 46.6381 40.9269C44.7547 43.7647 42.3026 46.1561 39.4463 47.9408C36.5899 49.7255 33.3953 50.8624 30.0765 51.2751C26.7577 51.6879 23.3914 51.367 20.2031 50.3341C18.0852 49.6514 16.0741 48.6587 14.2318 47.3867C13.3418 46.7898 12.4967 46.1253 11.7034 45.3985C10.8814 44.6482 10.1103 43.8409 9.39545 42.9825C7.97764 41.2685 6.79625 39.3622 5.88454 37.3171C5.43712 36.3067 5.06057 35.2648 4.75778 34.1992C4.43102 33.0601 4.18363 31.8986 4.0175 30.7234C3.87296 29.611 3.79932 28.49 3.79704 27.3678C3.79704 26.2884 2.16406 26.2856 2.16406 27.3678C2.16628 33.4999 4.29616 39.4304 8.17123 44.0942C12.0463 48.7581 17.4127 51.8497 23.3068 52.8141C29.2008 53.7784 35.2365 52.5522 40.3298 49.3557C45.4231 46.1592 49.2405 41.2018 51.0964 35.3737C52.6506 30.521 52.7454 25.2998 51.3685 20.3909C50.0025 15.7521 47.3848 11.6062 43.8187 8.4338C40.4149 5.36214 36.3197 3.21032 31.9034 2.17281C29.625 1.64113 27.2812 1.46858 24.9523 1.66108C22.4072 1.90111 19.9166 2.56211 17.5767 3.61851C14.4256 5.02897 11.5629 7.03951 9.13962 9.54395C8.94094 9.75088 8.7477 9.9606 8.55719 10.1759C8.4094 10.3359 8.32701 10.5481 8.32701 10.7687C8.32701 10.9893 8.4094 11.2015 8.55719 11.3616C8.63304 11.4398 8.72318 11.5018 8.82242 11.5442C8.92167 11.5865 9.02807 11.6083 9.13553 11.6083C9.243 11.6083 9.3494 11.5865 9.44865 11.5442C9.54789 11.5018 9.63803 11.4398 9.71388 11.3616L9.71933 11.3588Z" fill="#5AC8FF"/>
<path id="Vector_2" d="M9.95818 10.7658L10.3174 5.74922L10.3691 5.03336C10.3691 4.81087 10.2831 4.59749 10.13 4.44017C9.97688 4.28284 9.7692 4.19446 9.55265 4.19446C9.33742 4.19875 9.13216 4.28852 8.97993 4.44492C8.82771 4.60132 8.74034 4.81221 8.73616 5.03336L8.37691 10.0444L8.3252 10.7658C8.3252 10.876 8.34631 10.9851 8.38735 11.0869C8.42838 11.1887 8.48852 11.2811 8.56434 11.359C8.64016 11.4369 8.73017 11.4987 8.82923 11.5409C8.92829 11.583 9.03446 11.6047 9.14169 11.6047C9.35692 11.6004 9.56218 11.5107 9.71441 11.3543C9.86663 11.1979 9.954 10.987 9.95818 10.7658Z" fill="url(#paint0_linear_4541_205)"/>
<path id="Vector_3" d="M15.0912 9.63611L9.89014 9.89057L9.14169 9.92693C8.92666 9.93191 8.72179 10.0219 8.56971 10.1782C8.41762 10.3344 8.33004 10.5449 8.3252 10.7658C8.3252 10.9883 8.41122 11.2017 8.56434 11.359C8.71746 11.5163 8.92514 11.6047 9.14169 11.6047L14.3427 11.3503L15.0912 11.3139C15.3064 11.3096 15.5117 11.2199 15.6639 11.0634C15.8161 10.907 15.9035 10.6962 15.9077 10.475C15.9077 10.2525 15.8217 10.0391 15.6685 9.88182C15.5154 9.72449 15.3077 9.63611 15.0912 9.63611Z" fill="url(#paint1_linear_4541_205)"/>
<path id="Vector_4" d="M24.1713 19.4541L25.3117 28.243L25.475 29.4874C25.5321 29.9376 26.0955 30.1808 26.4793 30.0718C26.9501 29.9404 27.108 29.4929 27.0481 29.0399L25.9077 20.2539L25.7444 19.0151C25.6873 18.5649 25.1239 18.3188 24.7401 18.4279C24.5347 18.4922 24.3612 18.6352 24.2554 18.8272C24.1495 19.0192 24.1194 19.2456 24.1713 19.4597V19.4541Z" fill="url(#paint2_linear_4541_205)"/>
<path id="Vector_5" d="M34.8833 28.6568L27.3443 28.4471L26.2557 28.4164C25.2051 28.3884 25.2051 30.0662 26.2557 30.0942L33.7919 30.3039L34.8806 30.3346C35.9311 30.3626 35.9311 28.6848 34.8806 28.6568H34.8833Z" fill="url(#paint3_linear_4541_205)"/>
</g>
<defs>
<linearGradient id="paint0_linear_4541_205" x1="8.86952" y1="7.8968" x2="9.82482" y2="7.8968" gradientUnits="userSpaceOnUse">
<stop stop-color="#5ABBFF"/>
<stop offset="0.18" stop-color="#5ABBFF"/>
<stop offset="1" stop-color="#5ABBFF"/>
</linearGradient>
<linearGradient id="paint1_linear_4541_205" x1="9.12808" y1="10.6204" x2="15.1048" y2="10.6204" gradientUnits="userSpaceOnUse">
<stop stop-color="#5ABBFF"/>
<stop offset="0.18" stop-color="#5ABBFF"/>
<stop offset="1" stop-color="#5ABBFF"/>
</linearGradient>
<linearGradient id="paint2_linear_4541_205" x1="24.6884" y1="24.2442" x2="26.5391" y2="24.2442" gradientUnits="userSpaceOnUse">
<stop stop-color="#5ABBFF"/>
<stop offset="0.18" stop-color="#5ABBFF"/>
<stop offset="1" stop-color="#5ABBFF"/>
</linearGradient>
<linearGradient id="paint3_linear_4541_205" x1="26.2611" y1="29.3755" x2="34.8887" y2="29.3755" gradientUnits="userSpaceOnUse">
<stop stop-color="#5ABBFF"/>
<stop offset="0.18" stop-color="#5ABBFF"/>
<stop offset="1" stop-color="#5ABBFF"/>
</linearGradient>
</defs>
</svg>
