<?xml version="1.0" encoding="utf-8"?>
<!-- Generator: Adobe Illustrator 24.3.0, SVG Export Plug-In . SVG Version: 6.00 Build 0)  -->
<svg version="1.1" id="Layer_1" xmlns="http://www.w3.org/2000/svg" xmlns:xlink="http://www.w3.org/1999/xlink" x="0px" y="0px"
	 viewBox="0 0 56 56" style="enable-background:new 0 0 56 56;" xml:space="preserve">
<style type="text/css">
	.st0{fill:#FFFFFF;}
</style>
<g>
	<path class="st0" d="M12.2,28.4h5.6c1.3,0,2.4-1.1,2.4-2.4v-5.6c0-1.3-1.1-2.4-2.4-2.4h-5.6c-1.3,0-2.4,1.1-2.4,2.4V26
		C9.8,27.4,10.9,28.4,12.2,28.4z M18.6,26c0,0.4-0.3,0.7-0.7,0.7h-5.6c-0.4,0-0.7-0.3-0.7-0.7v-5.6c0-0.4,0.3-0.7,0.7-0.7h5.6
		c0.4,0,0.7,0.3,0.7,0.7V26z"/>
	<path class="st0" d="M12.2,47.4h5.6c1.3,0,2.4-1.1,2.4-2.4v-5.6c0-1.3-1.1-2.4-2.4-2.4h-1.3v-1.7h7.4l0.1,0c0.2,0,0.3-0.1,0.4-0.2
		V37c0,1.3,1.1,2.4,2.4,2.4h5.6c1.3,0,2.4-1.1,2.4-2.4v-2.1c0,0,0.1,0,0.1,0c0,0,0,0,0,0l5.4,0c0.5,0,0.8-0.4,0.8-0.8l0-5.7h2.5
		c1.3,0,2.4-1.1,2.4-2.4v-5.6c0-1.3-1.1-2.4-2.4-2.4h-5.6c-1.3,0-2.4,1.1-2.4,2.4V26c0,1.3,1.1,2.4,2.4,2.4h1.4v4.8H35l-0.1,0
		c0,0,0,0-0.1,0v-1.9c0-1.3-1.1-2.4-2.4-2.4h-5.6c-1.3,0-2.4,1.1-2.4,2.4v2.4c-0.1-0.1-0.3-0.2-0.5-0.2c0,0,0,0,0,0h-8.2
		c-0.5,0-0.8,0.4-0.8,0.8V37h-2.7c-1.3,0-2.4,1.1-2.4,2.4V45C9.8,46.3,10.9,47.4,12.2,47.4z M15.7,38.6L15.7,38.6c0.1,0,0.1,0,0.2,0
		h2c0.4,0,0.7,0.3,0.7,0.7v5.6c0,0.4-0.3,0.7-0.7,0.7h-5.6c-0.4,0-0.7-0.3-0.7-0.7v-5.6c0-0.4,0.3-0.7,0.7-0.7H15.7z M38.2,26.8
		c-0.4,0-0.7-0.3-0.7-0.7v-5.6c0-0.4,0.3-0.7,0.7-0.7h5.6c0.4,0,0.7,0.3,0.7,0.7V26c0,0.4-0.3,0.7-0.7,0.7H38.2z M26.1,37v-5.6
		c0-0.4,0.3-0.7,0.7-0.7h5.6c0.4,0,0.7,0.3,0.7,0.7V37c0,0.4-0.3,0.7-0.7,0.7h-5.6C26.4,37.7,26.1,37.4,26.1,37z"/>
	<path class="st0" d="M21.2,24.1h13.6l0.1,0c0.4,0,0.7-0.4,0.7-0.8c0-0.5-0.3-0.9-0.8-0.9l-13.6,0c-0.4,0-0.8,0.4-0.8,0.8
		c0,0.2,0.1,0.4,0.2,0.6C20.8,24,21,24.1,21.2,24.1z"/>
	<path class="st0" d="M54.6,8.8c-0.1-1.9-1.8-3.3-3.7-3.2l-45.9,0C4.1,5.5,3.2,5.8,2.6,6.4C1.9,7,1.4,7.8,1.4,8.8l0,6.6
		c0,0.1,0,0.2,0,0.3c0,0,0,0,0,0l0,31.6c0.1,1.9,1.7,3.3,3.7,3.2h45.9c0.1,0,0.1,0,0.2,0c1.8,0,3.3-1.4,3.5-3.3L54.6,8.8z
		 M52.8,47.2c-0.1,1-0.8,1.7-1.9,1.6l-46,0c-1,0-1.8-0.7-1.8-1.6l0-30.9h49.6L52.8,47.2z M3.2,8.8C3.3,7.9,4,7.2,4.9,7.2
		c0,0,0.1,0,0.1,0l0,0l46,0c1,0,1.8,0.7,1.8,1.6l0,5.9H3.2L3.2,8.8z"/>
	<path class="st0" d="M8.1,8.3c-1.4,0-2.6,1.2-2.6,2.6s1.2,2.6,2.6,2.6s2.6-1.2,2.6-2.6S9.5,8.3,8.1,8.3z M9,10.9
		c0,0.5-0.4,0.9-0.9,0.9c-0.5,0-0.9-0.4-0.9-0.9c0-0.5,0.4-0.9,0.9-0.9C8.6,10,9,10.4,9,10.9z"/>
	<path class="st0" d="M16.1,8.3c-1.4,0-2.6,1.2-2.6,2.6s1.2,2.6,2.6,2.6s2.6-1.2,2.6-2.6S17.6,8.3,16.1,8.3z M17.1,10.9
		c0,0.5-0.4,0.9-0.9,0.9c-0.5,0-0.9-0.4-0.9-0.9c0-0.5,0.4-0.9,0.9-0.9C16.7,10,17.1,10.4,17.1,10.9z"/>
	<path class="st0" d="M23.6,8.3c-1.4,0-2.6,1.2-2.6,2.6s1.2,2.6,2.6,2.6c1.4,0,2.6-1.2,2.6-2.6S25.1,8.3,23.6,8.3z M23.6,11.9
		c-0.5,0-0.9-0.4-0.9-0.9c0-0.5,0.4-0.9,0.9-0.9c0.5,0,0.9,0.4,0.9,0.9C24.6,11.5,24.2,11.9,23.6,11.9z"/>
	<path class="st0" d="M41.4,10.1l-10.7,0c-0.4,0-0.8,0.4-0.8,0.8c0,0.2,0.1,0.5,0.2,0.6c0.1,0.2,0.3,0.3,0.6,0.3h10.7l0,0
		c0.4,0,0.7-0.4,0.8-0.8c0-0.2-0.1-0.4-0.2-0.6C41.9,10.2,41.7,10.1,41.4,10.1z"/>
	<path class="st0" d="M49.7,10.1l-0.6,0l0-0.7c0-0.4-0.4-0.7-0.8-0.8c-0.2,0-0.5,0.1-0.6,0.2c-0.2,0.1-0.3,0.3-0.3,0.6v0.6l-0.7,0
		c-0.4,0-0.7,0.4-0.8,0.8c0,0.2,0,0.5,0.2,0.6c0.1,0.2,0.4,0.3,0.6,0.3l0.6,0v0.6c0,0.5,0.4,0.8,0.8,0.8h0c0.5,0,0.8-0.4,0.8-0.8
		l0-0.6l0.6,0c0.5,0,0.8-0.4,0.8-0.8C50.6,10.5,50.2,10.1,49.7,10.1z"/>
</g>
</svg>
