<?xml version="1.0" encoding="utf-8"?>
<!-- Generator: Adobe Illustrator 24.3.0, SVG Export Plug-In . SVG Version: 6.00 Build 0)  -->
<svg version="1.1" id="Layer_1" xmlns="http://www.w3.org/2000/svg" xmlns:xlink="http://www.w3.org/1999/xlink" x="0px" y="0px"
	 viewBox="0 0 56 56" style="enable-background:new 0 0 56 56;" xml:space="preserve">
<style type="text/css">
	.st0{fill-rule:evenodd;clip-rule:evenodd;fill:#FFFFFF;}
</style>
<g id="Group_406">
	<g id="Group_405">
		<path id="Path_592" class="st0" d="M52.4,1.5c1.2,0.1,2.1,1.1,2.1,2.3v40.5c0.1,1.2-0.9,2.2-2.1,2.3h-4.9v5.6
			c0.1,1.2-0.9,2.2-2.1,2.3H3.6c-1.2-0.1-2.1-1.1-2.1-2.3V11.7c-0.1-1.2,0.9-2.2,2.1-2.3h4.9V3.8c-0.1-1.2,0.9-2.2,2.1-2.3
			C10.5,1.5,52.4,1.5,52.4,1.5z M8.5,20.3H3.2v31.8c0,0.2,0.1,0.4,0.3,0.4h41.9c0.2,0,0.3-0.2,0.3-0.4v-5.6H10.5
			c-1.2-0.1-2.1-1.1-2.1-2.3L8.5,20.3C8.5,20.3,8.5,20.3,8.5,20.3z M52.8,12.4H10.2v31.9c0,0.2,0.1,0.4,0.3,0.4h41.9
			c0.2,0,0.3-0.2,0.3-0.4L52.8,12.4C52.8,12.4,52.8,12.4,52.8,12.4z M35.7,17.5l-6.6,21.3h-1.8l6.6-21.3
			C33.9,17.5,35.7,17.5,35.7,17.5z M36.8,23.3l8.4,4v1.8l-8.4,4l-0.5-1.7l6.9-3.2L36.3,25C36.3,25,36.8,23.3,36.8,23.3z M26.2,23.3
			l0.5,1.7l-6.9,3.2l6.9,3.2l-0.5,1.7l-8.4-4v-1.8L26.2,23.3L26.2,23.3L26.2,23.3z M8.5,11.3H3.6c-0.2,0-0.3,0.2-0.3,0.4v6.7h5.3
			C8.5,18.4,8.5,11.3,8.5,11.3z M52.4,3.4H10.5c-0.2,0-0.3,0.2-0.3,0.4v6.7h42.6V3.8C52.8,3.6,52.6,3.4,52.4,3.4
			C52.4,3.4,52.4,3.4,52.4,3.4z M17.5,5.8c0.5,0.1,0.9,0.5,0.9,1.1c-0.1,0.4-0.4,0.8-0.9,0.9h-3.2c-0.5-0.1-0.9-0.5-0.9-1.1
			c0.1-0.4,0.4-0.8,0.9-0.9C14.3,5.8,17.5,5.8,17.5,5.8z M24.8,5.8c0.5,0.1,0.9,0.5,0.9,1.1c-0.1,0.4-0.4,0.8-0.9,0.9h-3.2
			c-0.5-0.1-0.9-0.5-0.9-1.1c0.1-0.4,0.4-0.8,0.9-0.9C21.6,5.8,24.8,5.8,24.8,5.8z"/>
	</g>
</g>
</svg>
