<svg width="48" height="45" viewBox="0 0 48 45" fill="none" xmlns="http://www.w3.org/2000/svg">
<path d="M32.6663 43H15.333V33H32.6663V43Z" stroke="#BB75D6" stroke-width="2.8125" stroke-miterlimit="10"/>
<path d="M1.40576 29V7.625C1.40576 4.51841 3.92417 2 7.03076 2H40.9682C44.0748 2 46.5932 4.51841 46.5932 7.625V29" fill="#BB75D6"/>
<path d="M1.40576 29V7.625C1.40576 4.51841 3.92417 2 7.03076 2H40.9682C44.0748 2 46.5932 4.51841 46.5932 7.625V29" stroke="#BB75D6" stroke-width="2.8125" stroke-miterlimit="10"/>
<path d="M10.9995 43H36.9995" stroke="#BB75D6" stroke-width="2.8125" stroke-miterlimit="10"/>
<path d="M13.7628 33.125L13.3428 32.5267C12.3836 31.1601 11.6947 29.6116 11.3192 27.992H7.46191V22.1396H11.3188C11.6431 20.7372 12.2007 19.3948 12.9671 18.1711L10.2366 15.4408L14.3748 11.3025L17.1053 14.033C18.3288 13.2665 19.6714 12.7089 21.0738 12.3845V8.52772H26.9261V12.3845C28.3285 12.7089 29.6711 13.2665 30.8945 14.033L33.625 11.3025L37.7632 15.4408L35.0327 18.1711C35.7992 19.3948 36.3568 20.7372 36.6812 22.1396H40.538V27.992H36.6807C36.3052 29.6116 35.6162 31.1601 34.6571 32.5267L34.2372 33.125H13.7628Z" fill="#BB75D6"/>
<path d="M28.3323 7.12147H25.5198H22.48H19.6675V9.93397V11.3121C18.8656 11.5655 18.0866 11.8891 17.34 12.2789L16.3636 11.3025L14.3748 9.31381L12.3861 11.3024L10.2366 13.4519L8.24791 15.4407L10.2366 17.4294L11.213 18.4059C10.8232 19.1525 10.4997 19.9314 10.2463 20.7333H8.86816H6.05566V23.5458V26.5857V29.3982H8.86816H10.2473C10.6898 30.797 11.346 32.1296 12.1917 33.3345L13.0317 34.5312H14.4937H33.506H34.9681L35.8081 33.3345C36.6539 32.1296 37.31 30.797 37.7525 29.3982H39.1317H41.9442V26.5857V23.5458V20.7333H39.1317H37.7536C37.5001 19.9314 37.1765 19.1525 36.7867 18.4059L37.7632 17.4294L39.7519 15.4407L37.7632 13.4519L35.6137 11.3024L33.625 9.31381L31.6363 11.3025L30.6599 12.2789C29.9132 11.8891 29.1343 11.5655 28.3323 11.3121V9.93397V7.12147ZM25.5198 9.93397V13.5574C27.5854 13.8288 29.4812 14.6456 31.0587 15.8576L33.625 13.2913L35.7745 15.4407L33.2081 18.007C34.4201 19.5843 35.2368 21.4802 35.5082 23.5458H39.1317V26.5857H35.5082C35.2597 28.4771 34.5538 30.2262 33.506 31.7188H14.4937C13.4461 30.2262 12.7401 28.4771 12.4917 26.5857H8.86816V23.5458H12.4917C12.763 21.4802 13.5798 19.5843 14.7918 18.007L12.2253 15.4407L14.3748 13.2913L16.9412 15.8576C18.5185 14.6456 20.4144 13.8288 22.48 13.5574V9.93397H25.5198Z" fill="white"/>
<path d="M23.9997 30.4976C20.9935 30.4976 18.5479 28.0519 18.5479 25.0457C18.5479 22.0395 20.9935 19.5938 23.9997 19.5938C27.0059 19.5938 29.4515 22.0395 29.4515 25.0457C29.4515 28.0519 27.0059 30.4976 23.9997 30.4976Z" fill="#BB75D6"/>
<path d="M23.9997 18.1875C20.2181 18.1875 17.1416 21.264 17.1416 25.0456C17.1416 28.8272 20.2181 31.9038 23.9997 31.9038C27.7813 31.9038 30.8578 28.8272 30.8578 25.0456C30.8578 21.264 27.7813 18.1875 23.9997 18.1875ZM23.9997 21C26.234 21 28.0453 22.8114 28.0453 25.0456C28.0453 27.28 26.234 29.0913 23.9997 29.0913C21.7653 29.0913 19.9541 27.28 19.9541 25.0456C19.9541 22.8114 21.7653 21 23.9997 21Z" fill="white"/>
<path d="M46.5932 36H1.40576V29H46.5932V36Z" fill="#BB75D6" stroke="#BB75D6" stroke-width="2.8125" stroke-miterlimit="10"/>
<path d="M-2.00049 28H49.9995" stroke="white" stroke-width="2.8125" stroke-miterlimit="10"/>
</svg>
